<?xml version="1.0" standalone="no"?>
<!DOCTYPE svg PUBLIC "-//W3C//DTD SVG 20010904//EN"
 "http://www.w3.org/TR/2001/REC-SVG-20010904/DTD/svg10.dtd">
<svg version="1.0" xmlns="http://www.w3.org/2000/svg"
 width="225.000000pt" height="225.000000pt" viewBox="0 0 225.000000 225.000000"
 preserveAspectRatio="xMidYMid meet">
<metadata>
Created by potrace 1.15, written by Peter Selinger 2001-2017
</metadata>
<g transform="translate(0.000000,225.000000) scale(0.100000,-0.100000)"
fill="#000000" stroke="none">
<path d="M565 1684 l-560 -554 148 0 147 0 0 -560 0 -560 825 0 825 0 0 560 0
559 145 3 146 3 -558 551 -558 551 -560 -553z m1080 -153 l270 -271 -53 0 -52
0 0 -555 0 -555 -685 0 -685 0 0 554 0 555 -51 3 -52 3 392 388 393 388 126
-120 c70 -66 248 -241 397 -390z"/>
<path d="M1080 1547 c0 -31 -3 -34 -46 -45 -77 -21 -125 -60 -166 -137 -32
-58 -31 -181 1 -248 29 -58 86 -109 157 -138 l54 -23 0 -140 0 -140 -35 34
c-19 18 -42 53 -51 77 -14 35 -21 42 -38 38 -11 -2 -47 -7 -79 -10 l-59 -7 7
-36 c19 -109 98 -201 197 -230 l58 -17 0 -57 0 -58 45 0 45 0 0 60 0 59 42 12
c67 18 113 45 151 90 47 54 67 116 67 204 0 132 -56 203 -202 257 l-58 21 0
129 0 128 25 -16 c13 -9 32 -33 41 -53 l16 -37 77 11 c73 10 76 11 73 35 -6
44 -56 123 -95 151 -21 15 -60 33 -87 40 -47 12 -50 15 -50 46 0 32 -1 33 -45
33 -44 0 -45 -1 -45 -33z m141 -640 c58 -39 74 -98 43 -162 -15 -33 -40 -54
-76 -68 -17 -6 -18 4 -18 123 0 72 4 130 9 130 4 0 23 -10 42 -23z"/>
</g>
</svg>
