<?xml version="1.0" encoding="utf-8"?>
<!-- Generator: Adobe Illustrator 19.2.0, SVG Export Plug-In . SVG Version: 6.00 Build 0)  -->
<svg version="1.1" id="Layer_1" xmlns="http://www.w3.org/2000/svg" xmlns:xlink="http://www.w3.org/1999/xlink" x="0px" y="0px"
	 width="150px" height="150px" viewBox="0 0 150 150" style="enable-background:new 0 0 150 150;" xml:space="preserve">
<style type="text/css">
	.st0{fill:#009CDE;}
</style>
<g id="XMLID_55_">
	<path id="XMLID_63_" class="st0" d="M122.5,5.3H118c-11.8,25-52.1,41.4-52.1,41.4l42.9-10.7C91.5,75.3,56.2,105,13.4,114.2v4.5
		C69.3,107.1,113,62,122.5,5.3z M115.2,139h22.4V5.6H128c-1.9,15.6-6.2,30.4-12.7,43.9V139z M81.5,139h22.4V68.8
		C97.5,78,90,86.3,81.5,93.7V139z M70.2,139v-36.4c-7,5-14.5,9.3-22.4,12.9V139H70.2z M36.5,139v-18.9c-7.1,2.6-14.6,4.5-22.4,5.8
		V139H36.5z M139.7,146.1c0-1-0.7-1.8-1.7-1.8H13.5c-1,0-1.8,0.8-1.8,1.8"/>
</g>
</svg>
