<?xml version="1.0" standalone="no"?>
<!DOCTYPE svg PUBLIC "-//W3C//DTD SVG 20010904//EN"
 "http://www.w3.org/TR/2001/REC-SVG-20010904/DTD/svg10.dtd">
<svg version="1.0" xmlns="http://www.w3.org/2000/svg"
 width="512.000000pt" height="512.000000pt" viewBox="0 0 512.000000 512.000000"
 preserveAspectRatio="xMidYMid meet">
<metadata>
Created by potrace 1.14, written by Peter Selinger 2001-2017
</metadata>
<g transform="translate(0.000000,512.000000) scale(0.100000,-0.100000)"
fill="#000000" stroke="none">
<path d="M3616 5105 c-194 -49 -365 -216 -422 -410 -96 -331 189 -700 541
-699 151 1 277 56 395 174 189 189 222 445 88 667 -68 111 -190 211 -311 253
-81 28 -212 35 -291 15z m208 -200 c175 -28 297 -217 266 -410 -31 -190 -179
-305 -379 -293 -138 8 -236 70 -293 186 -31 62 -33 74 -33 167 0 89 3 107 29
162 48 105 144 176 260 193 51 7 76 7 150 -5z"/>
<path d="M2142 4394 c-29 -7 -63 -19 -75 -26 -51 -27 -708 -542 -765 -600 -83
-83 -133 -182 -133 -262 0 -80 30 -138 89 -174 42 -24 57 -27 132 -26 117 1
155 16 490 194 157 84 314 167 350 185 l65 32 130 -29 c71 -16 131 -30 132
-32 2 -2 -119 -185 -269 -407 -161 -240 -289 -441 -314 -494 -45 -94 -74 -194
-74 -255 0 -30 -33 -83 -198 -320 l-197 -285 -475 -32 c-261 -17 -498 -36
-526 -42 -324 -73 -400 -396 -125 -536 122 -61 186 -70 826 -110 220 -13 424
-27 454 -29 108 -10 229 31 316 107 22 19 132 165 244 325 l203 290 171 -112
c299 -195 337 -221 337 -227 0 -3 -79 -201 -176 -440 -202 -499 -227 -570
-250 -699 -18 -110 -13 -174 20 -246 108 -230 376 -158 589 158 89 133 654
1223 668 1288 22 106 -19 253 -94 337 -20 22 -182 140 -361 263 -199 136 -323
227 -319 234 26 45 338 543 343 549 4 4 29 -45 55 -110 27 -65 59 -140 73
-167 34 -69 115 -151 180 -183 54 -26 57 -27 241 -24 314 3 673 20 741 35 212
46 304 136 285 280 -12 94 -53 148 -145 190 -70 32 -125 40 -460 67 -160 12
-280 26 -286 33 -7 6 -81 168 -165 360 -84 192 -166 366 -181 387 -27 38 -456
335 -526 366 -45 19 -895 203 -935 202 -18 0 -56 -7 -85 -15z m525 -283 l413
-90 212 -142 c117 -78 219 -147 227 -154 34 -32 6 -83 -380 -702 -403 -646
-401 -642 -359 -696 12 -14 188 -141 393 -282 205 -140 381 -267 391 -282 11
-14 21 -47 23 -72 5 -56 10 -47 -344 -721 -294 -559 -336 -633 -409 -708 -47
-49 -55 -53 -90 -50 l-39 3 -3 69 c-4 104 24 188 253 755 113 278 205 519 205
534 0 16 -5 37 -11 48 -5 11 -216 156 -467 323 -308 204 -471 318 -500 350
-99 108 -108 210 -31 363 25 49 185 297 358 553 173 255 317 476 321 490 10
37 -7 87 -35 106 -31 20 -465 118 -520 118 -32 -1 -117 -42 -438 -213 -218
-117 -413 -215 -432 -218 -34 -5 -35 -4 -35 25 0 24 12 44 53 86 59 63 715
572 762 592 16 7 39 11 50 9 11 -3 206 -45 432 -94z m1097 -926 c64 -143 125
-267 136 -277 24 -20 38 -22 435 -54 351 -29 388 -37 383 -81 -2 -23 -10 -29
-47 -40 -54 -15 -299 -30 -664 -39 l-268 -6 -37 39 c-28 31 -58 90 -125 255
l-88 214 78 126 c43 69 79 125 80 124 1 -1 54 -119 117 -261z m-1726 -1036
c30 -33 89 -83 131 -111 42 -28 77 -52 79 -54 6 -4 -370 -538 -407 -577 -65
-69 -14 -68 -859 -11 -494 33 -546 42 -563 107 -13 47 7 83 54 102 45 18 76
21 715 64 398 27 413 29 437 51 13 13 97 128 186 257 89 128 164 233 167 233
3 0 30 -27 60 -61z"/>
</g>
</svg>
