<?xml version="1.0" standalone="no"?>
<!DOCTYPE svg PUBLIC "-//W3C//DTD SVG 20010904//EN"
 "http://www.w3.org/TR/2001/REC-SVG-20010904/DTD/svg10.dtd">
<svg version="1.0" xmlns="http://www.w3.org/2000/svg"
 width="256.000000pt" height="256.000000pt" viewBox="0 0 256.000000 256.000000"
 preserveAspectRatio="xMidYMid meet">
<metadata>
Created by potrace 1.15, written by Peter Selinger 2001-2017
</metadata>
<g transform="translate(0.000000,256.000000) scale(0.100000,-0.100000)"
fill="#000000" stroke="none">
<path d="M1052 2549 c-187 -33 -361 -133 -459 -263 -95 -127 -113 -189 -113
-391 l0 -151 -29 -22 c-61 -45 -64 -128 -11 -267 34 -92 53 -121 101 -153 26
-18 45 -23 79 -20 l45 3 -1 -76 c-1 -60 -7 -89 -28 -135 -32 -70 -48 -88 -104
-125 -24 -15 -39 -30 -34 -33 21 -13 140 -36 187 -36 65 0 110 13 165 48 l45
29 64 -49 c149 -112 250 -131 371 -69 36 19 90 53 120 76 l55 42 45 -29 c80
-51 165 -61 275 -33 93 24 92 23 43 54 -84 54 -125 131 -135 257 -5 61 -3 73
14 90 76 75 115 222 78 294 -9 17 -27 33 -41 36 -20 5 -24 11 -20 28 13 43 18
272 8 326 -22 114 -50 170 -127 247 -85 85 -175 133 -297 157 -231 47 -462
-16 -601 -163 -68 -72 -98 -133 -118 -235 -12 -62 -11 -202 1 -286 5 -35 7
-66 6 -68 -2 -2 -11 19 -20 46 -9 27 -26 58 -36 67 -18 16 -20 31 -20 134 1
131 9 181 46 256 164 334 636 450 971 239 77 -49 128 -99 176 -173 74 -112 80
-135 86 -330 5 -151 8 -175 24 -185 12 -8 22 -8 35 0 15 10 17 32 20 185 2
150 0 183 -17 239 -59 193 -241 355 -472 420 -86 24 -292 35 -377 19z m514
-566 c58 -61 114 -172 114 -227 0 -35 -15 -137 -36 -241 -5 -25 -2 -23 18 14
30 59 51 71 77 47 39 -35 21 -138 -34 -204 -17 -20 -46 -68 -65 -105 -72 -143
-222 -297 -347 -358 -63 -31 -124 -31 -187 0 -64 32 -182 126 -229 184 l-38
46 64 -30 c89 -41 196 -69 267 -69 51 0 65 4 85 25 33 32 33 78 0 110 -21 22
-33 25 -95 25 -62 0 -74 -3 -96 -25 -14 -14 -31 -25 -38 -25 -8 0 -50 18 -95
41 -89 44 -211 148 -211 179 0 10 -13 55 -30 100 -35 95 -37 120 -12 120 23 0
45 -23 66 -70 12 -25 15 -28 11 -10 -45 236 -39 244 195 253 157 6 246 25 349
75 62 31 150 107 181 158 12 19 26 34 31 34 5 0 30 -21 55 -47z"/>
<path d="M600 746 c-304 -85 -411 -128 -483 -191 -67 -59 -107 -198 -114 -403
l-6 -152 1203 0 1203 0 -6 153 c-8 205 -47 343 -114 402 -72 63 -212 118 -500
195 -84 22 -158 43 -166 45 -10 4 -13 -14 -13 -84 0 -87 0 -90 -56 -205 -32
-64 -76 -144 -99 -178 -52 -77 -149 -180 -206 -220 l-43 -29 -42 29 c-105 72
-214 212 -299 382 -55 109 -74 188 -64 261 4 27 3 48 -2 48 -4 -1 -91 -25
-193 -53z"/>
<path d="M1075 680 l-38 -39 29 -42 c15 -23 34 -43 41 -46 20 -8 16 -24 -27
-133 l-40 -101 20 -29 c21 -30 129 -130 140 -130 11 0 119 100 140 130 l21 29
-45 110 -44 110 25 23 c14 13 34 36 45 51 l20 29 -38 39 -38 39 -86 0 -86 0
-39 -40z"/>
</g>
</svg>
