<?xml version="1.0" standalone="no"?>
<!DOCTYPE svg PUBLIC "-//W3C//DTD SVG 20010904//EN"
 "http://www.w3.org/TR/2001/REC-SVG-20010904/DTD/svg10.dtd">
<svg version="1.0" xmlns="http://www.w3.org/2000/svg"
 width="487.000000pt" height="290.000000pt" viewBox="0 0 487.000000 290.000000"
 preserveAspectRatio="xMidYMid meet">
<metadata>
Created by potrace 1.14, written by Peter Selinger 2001-2017
</metadata>
<g transform="translate(0.000000,290.000000) scale(0.100000,-0.100000)"
fill="#000000" stroke="none">
<path d="M4110 2075 c-113 -79 -205 -149 -205 -157 0 -9 12 -12 43 -10 41 3
43 2 33 -17 -6 -11 -26 -32 -45 -46 -28 -21 -34 -34 -39 -77 -8 -61 -28 -88
-51 -69 -8 7 -16 21 -18 31 -3 15 -15 10 -78 -36 -41 -30 -82 -60 -90 -67 -66
-52 -272 -162 -463 -246 -405 -179 -903 -286 -1498 -322 l-206 -13 -21 -58
-21 -58 79 0 c333 0 827 68 1163 160 288 79 629 216 842 337 203 116 409 268
549 405 l79 78 58 0 c67 0 61 -11 84 145 9 61 18 122 21 138 3 15 2 27 -3 26
-4 0 -100 -65 -213 -144z"/>
<path d="M797 1972 c-33 -37 -16 -97 33 -115 8 -3 0 -6 -18 -6 -35 -1 -65 -13
-94 -38 -16 -14 -16 -18 4 -57 11 -22 25 -44 30 -47 5 -3 6 -22 3 -42 -6 -31
-13 -38 -51 -54 -58 -24 -56 -37 4 -28 61 9 78 19 98 57 l16 31 25 -26 26 -25
-21 -43 c-12 -24 -19 -45 -16 -48 6 -6 83 80 84 95 0 5 -10 24 -23 41 -17 24
-22 41 -19 72 4 36 6 39 22 31 10 -6 23 -10 28 -10 10 0 52 72 52 89 0 20 -29
12 -45 -13 l-16 -25 -36 22 c-31 18 -33 21 -16 28 71 26 54 129 -22 129 -18 0
-39 -8 -48 -18z"/>
<path d="M150 990 l0 -60 501 2 502 3 13 38 c12 34 11 40 -6 57 -19 19 -37 20
-515 20 l-495 0 0 -60z"/>
<path d="M4195 769 c5 -8 29 -38 53 -66 l44 -53 -1424 0 -1425 0 -64 -48 c-79
-60 -107 -75 -125 -68 -23 9 -16 40 16 71 17 16 30 32 30 37 0 9 -1060 11
-1203 1 l-97 -6 0 -84 0 -83 2224 0 2224 0 57 -67 c32 -38 61 -69 65 -71 7 -3
282 224 288 237 1 3 -143 51 -320 105 -178 55 -329 101 -337 104 -10 4 -12 1
-6 -9z"/>
</g>
</svg>
