<?xml version="1.0" standalone="no"?>
<!DOCTYPE svg PUBLIC "-//W3C//DTD SVG 20010904//EN"
 "http://www.w3.org/TR/2001/REC-SVG-20010904/DTD/svg10.dtd">
<svg version="1.0" xmlns="http://www.w3.org/2000/svg"
 width="225.000000pt" height="225.000000pt" viewBox="0 0 225.000000 225.000000"
 preserveAspectRatio="xMidYMid meet">
<metadata>
Created by potrace 1.14, written by Peter Selinger 2001-2017
</metadata>
<g transform="translate(0.000000,225.000000) scale(0.100000,-0.100000)"
fill="#000000" stroke="none">
<path d="M1254 1930 c-44 -18 -54 -48 -54 -155 0 -121 10 -145 68 -163 39 -13
42 -17 42 -48 0 -19 3 -34 6 -34 4 0 28 16 54 35 46 34 50 35 141 35 183 0
203 19 197 186 -5 153 2 148 -241 151 -105 1 -202 -2 -213 -7z m408 -37 c15
-14 18 -32 18 -121 0 -143 1 -142 -147 -142 -105 0 -117 -2 -151 -25 -20 -14
-40 -25 -44 -25 -5 0 -8 11 -8 25 0 22 -4 25 -33 25 -54 0 -71 28 -76 121 -7
160 -9 159 231 159 164 0 194 -2 210 -17z"/>
<path d="M775 1584 c-16 -12 -21 -30 -25 -102 l-5 -87 -236 -3 c-225 -2 -237
-3 -255 -23 -18 -20 -19 -46 -22 -440 -2 -283 1 -426 8 -439 10 -19 8 -20 -65
-20 -134 0 -79 -17 77 -23 195 -9 1673 -9 1801 0 110 7 131 23 31 23 l-65 0 1
67 c1 38 1 209 1 381 l-1 312 -170 0 -170 0 0 54 c0 39 -6 60 -21 80 l-20 26
-235 0 -234 0 0 64 c0 73 -14 122 -40 136 -10 6 -90 10 -177 10 -125 -1 -162
-4 -178 -16z m353 -26 c7 -7 12 -43 12 -91 0 -76 -1 -78 -22 -75 -20 3 -23 10
-26 58 -2 30 -8 60 -14 67 -14 18 -229 18 -246 1 -7 -7 -12 -38 -12 -70 0 -55
-1 -58 -25 -58 -25 0 -25 1 -25 78 0 47 5 83 12 90 8 8 61 12 173 12 112 0
165 -4 173 -12z m-74 -54 c12 -4 16 -20 16 -55 l0 -49 -115 0 -115 0 0 49 c0
30 5 51 13 54 18 8 182 8 201 1z m577 -144 c15 -9 19 -22 19 -70 l0 -60 -95 0
-95 0 0 -115 0 -115 -600 0 -600 0 0 175 c0 155 2 175 18 184 24 14 1326 15
1353 1z m359 -525 l0 -365 -250 0 -250 0 0 365 0 365 250 0 250 0 0 -365z
m-1130 60 l0 -85 95 0 95 0 0 85 0 85 205 0 205 0 0 -255 0 -255 -588 0 c-444
0 -591 3 -600 12 -9 9 -12 79 -12 255 l0 243 300 0 300 0 0 -85z m160 5 l0
-70 -70 0 -70 0 0 70 0 70 70 0 70 0 0 -70z"/>
</g>
</svg>
