<?xml version="1.0" standalone="no"?>
<!DOCTYPE svg PUBLIC "-//W3C//DTD SVG 20010904//EN"
 "http://www.w3.org/TR/2001/REC-SVG-20010904/DTD/svg10.dtd">
<svg version="1.0" xmlns="http://www.w3.org/2000/svg"
 width="960.000000pt" height="653.000000pt" viewBox="0 0 960.000000 653.000000"
 preserveAspectRatio="xMidYMid meet">
<metadata>
Created by potrace 1.14, written by Peter Selinger 2001-2017
</metadata>
<g transform="translate(0.000000,653.000000) scale(0.100000,-0.100000)"
fill="#000000" stroke="none">
<path d="M6927 6519 c-10 -6 -27 -30 -38 -52 -11 -23 -29 -57 -41 -75 -11 -19
-39 -95 -61 -170 -37 -123 -41 -149 -41 -247 -1 -82 4 -125 18 -167 16 -48 17
-64 7 -102 -21 -83 -13 -157 34 -340 54 -211 57 -259 20 -386 -41 -144 -37
-349 9 -470 5 -11 -7 -20 -46 -34 -109 -38 -233 -102 -251 -129 -9 -15 -31
-34 -48 -43 -27 -14 -33 -14 -47 -1 -23 21 -88 37 -145 37 -61 0 -330 -68
-592 -150 -33 -10 -94 -28 -135 -40 -143 -41 -195 -62 -223 -92 -25 -26 -28
-35 -22 -71 6 -33 4 -39 -5 -30 -8 7 -44 9 -114 6 -115 -6 -164 -25 -192 -73
-23 -38 -32 -41 -136 -47 l-86 -6 -16 30 c-48 93 -171 138 -312 114 -81 -14
-168 -51 -206 -88 -26 -25 -31 -26 -107 -20 -62 4 -83 2 -92 -9 -18 -22 -27
-17 -49 25 -30 60 -26 59 -570 101 -422 33 -467 34 -530 15 -30 -10 -79 -19
-108 -22 l-53 -5 78 79 c88 87 122 148 154 273 11 41 31 99 45 129 14 29 34
83 45 120 12 36 40 118 64 181 57 153 93 280 101 354 5 52 1 73 -24 141 -38
102 -41 120 -52 360 -10 202 -27 311 -58 375 -14 29 -23 36 -54 38 -31 3 -40
-2 -64 -31 -15 -19 -41 -72 -58 -118 -18 -46 -35 -84 -40 -84 -9 0 -45 82 -91
203 -23 62 -53 105 -87 123 -9 5 -42 16 -74 24 -49 13 -87 13 -242 5 -213 -12
-299 -24 -512 -76 -310 -74 -441 -146 -470 -256 -6 -24 -24 -54 -39 -68 -51
-45 -71 -89 -71 -153 0 -48 -5 -65 -27 -94 -43 -57 -43 -130 1 -278 42 -138
114 -419 126 -485 18 -106 43 -210 67 -284 22 -68 24 -84 14 -116 -6 -21 -20
-94 -30 -164 -11 -69 -22 -130 -25 -135 -4 -5 -25 -12 -49 -16 -68 -12 -189
-55 -231 -84 -56 -37 -76 -77 -79 -154 -2 -54 2 -70 21 -96 12 -16 22 -43 22
-60 0 -34 45 -78 120 -116 28 -14 50 -29 50 -33 0 -28 -122 -437 -219 -732
-21 -63 -44 -135 -51 -160 -8 -25 -18 -51 -23 -58 -5 -6 -7 -12 -4 -12 11 0
-33 -137 -106 -335 -177 -473 -689 -1749 -758 -1887 -21 -43 -53 -119 -69
-169 -17 -51 -35 -100 -41 -110 -9 -18 20 -19 969 -19 l978 0 18 167 c9 93 35
353 56 578 39 408 72 727 90 880 5 44 21 206 35 360 48 522 128 1098 172 1235
l18 55 215 6 c247 7 385 26 555 74 70 19 155 36 205 39 532 37 733 58 757 78
8 6 13 32 13 62 0 42 4 54 22 65 25 15 177 31 184 19 3 -5 28 -20 57 -34 46
-24 59 -26 136 -22 117 7 188 35 266 108 l61 57 99 7 c86 6 100 4 108 -10 5
-9 28 -24 50 -34 35 -16 57 -18 142 -13 55 3 108 10 117 15 10 4 21 23 26 40
7 30 11 23 41 -82 19 -63 40 -127 47 -142 22 -43 66 -49 260 -38 93 5 289 13
435 16 255 7 270 6 360 -16 52 -12 103 -29 114 -36 11 -8 35 -14 54 -14 20 0
39 -7 46 -16 11 -15 20 -16 92 -4 54 8 139 10 259 6 174 -5 179 -6 191 -28 7
-13 13 -31 13 -40 0 -9 13 -74 30 -145 29 -129 32 -144 50 -333 5 -58 21 -220
35 -360 57 -589 97 -1043 170 -1955 19 -237 44 -493 50 -522 l5 -23 996 0
c945 0 996 1 989 17 -3 10 -9 31 -12 48 -4 16 -12 41 -20 55 -7 14 -13 30 -13
37 0 6 -41 132 -91 280 -50 147 -111 331 -136 408 -24 77 -53 159 -64 182 -10
24 -19 49 -19 56 0 7 -9 37 -20 67 -30 80 -70 191 -80 220 -5 14 -45 124 -90
245 -45 121 -96 265 -114 320 -18 55 -59 159 -91 230 -31 72 -85 209 -120 305
-35 96 -86 225 -113 285 -28 61 -66 156 -86 212 -19 56 -42 115 -50 132 -9 16
-27 58 -40 93 -13 35 -37 101 -55 148 -17 47 -40 103 -50 125 -10 22 -35 83
-57 135 -21 52 -46 111 -55 130 l-17 35 78 77 c54 53 88 96 110 141 31 64 32
68 25 154 -18 212 -88 312 -273 389 -37 15 -68 29 -70 30 -1 1 9 49 24 107 24
96 34 118 118 250 50 80 131 194 180 254 146 179 218 355 186 452 -12 37 -10
50 14 143 31 112 30 152 -5 219 -24 47 -89 92 -158 109 -37 9 -51 18 -66 43
-30 54 -55 75 -109 94 -37 13 -68 35 -113 81 -34 34 -81 71 -105 82 -60 26
-224 66 -354 87 -141 22 -490 24 -581 4 l-62 -14 -26 32 c-28 32 -56 39 -88
20z m45 -2346 c11 -12 26 -44 34 -70 7 -26 35 -113 63 -192 28 -79 51 -150 51
-159 0 -13 -17 -14 -131 -8 -220 11 -381 55 -464 128 -25 22 -45 45 -45 51 1
103 133 226 340 318 l84 38 24 -42 c13 -23 33 -52 44 -64z m-2368 -293 c21 -4
46 -16 54 -24 14 -14 13 -17 -16 -27 -57 -20 -51 -81 10 -93 31 -7 32 -8 14
-21 -11 -8 -35 -15 -53 -15 -19 0 -48 -7 -65 -16 -32 -16 -135 -23 -156 -10
-9 5 -9 13 -2 26 16 29 12 72 -10 105 -26 39 -25 40 8 54 71 28 151 37 216 21z
m-1878 -98 c75 -23 90 -31 92 -51 2 -13 22 -35 48 -54 24 -17 44 -34 44 -38 0
-6 -41 -19 -130 -39 -72 -17 -330 -25 -330 -11 0 6 23 61 52 122 l52 111 41
-6 c23 -3 82 -18 131 -34z"/>
</g>
</svg>
