<?xml version="1.0" standalone="no"?>
<!DOCTYPE svg PUBLIC "-//W3C//DTD SVG 20010904//EN"
 "http://www.w3.org/TR/2001/REC-SVG-20010904/DTD/svg10.dtd">
<svg version="1.0" xmlns="http://www.w3.org/2000/svg"
 width="256.000000pt" height="256.000000pt" viewBox="0 0 256.000000 256.000000"
 preserveAspectRatio="xMidYMid meet">
<metadata>
Created by potrace 1.14, written by Peter Selinger 2001-2017
</metadata>
<g transform="translate(0.000000,256.000000) scale(0.100000,-0.100000)"
fill="#000000" stroke="none">
<path d="M95 2247 c-11 -100 -65 -781 -61 -784 1 -2 51 -13 110 -25 79 -15
110 -18 115 -10 7 11 33 833 27 839 -2 2 -32 8 -67 13 -35 6 -76 12 -91 15
-26 4 -27 2 -33 -48z"/>
<path d="M506 2229 c-10 -32 -47 -592 -39 -599 14 -14 364 -151 372 -146 9 6
56 155 50 159 -2 2 -78 22 -169 43 -123 29 -166 43 -168 55 -3 14 17 13 160
-12 191 -33 217 -34 304 -13 62 16 71 16 148 0 44 -10 120 -31 168 -47 162
-53 257 -55 280 -5 28 62 -49 122 -237 185 -190 64 -235 93 -235 154 0 24 31
59 62 70 26 9 168 -67 203 -109 l30 -35 79 3 79 3 -69 85 c-95 117 -176 196
-210 204 -16 4 -203 10 -416 13 -325 5 -388 3 -392 -8z"/>
<path d="M337 1908 c-10 -178 -17 -340 -17 -361 0 -38 0 -38 37 -35 l37 3 38
340 c20 187 37 348 37 358 1 14 -8 17 -57 17 l-58 0 -17 -322z"/>
<path d="M1825 1044 c-54 -13 -117 -40 -187 -81 -72 -42 -84 -45 -200 -59
-215 -24 -308 -64 -308 -130 0 -43 24 -91 49 -99 11 -3 86 6 168 21 131 23
162 25 275 19 101 -6 128 -10 133 -23 8 -21 0 -25 -70 -46 -33 -9 -95 -33
-139 -53 -93 -43 -179 -52 -308 -33 -106 15 -156 37 -224 99 -29 27 -74 57
-99 66 -42 16 -46 16 -70 1 -29 -19 -33 -51 -8 -64 16 -9 15 -11 -1 -27 -21
-21 -14 -49 23 -89 50 -55 236 -196 271 -206 48 -13 352 -68 420 -75 51 -6 62
-3 145 38 50 24 170 90 269 145 120 68 196 105 233 112 54 12 55 12 49 43 -3
18 -10 104 -16 192 -7 88 -15 169 -20 181 -13 33 -134 66 -260 70 -58 1 -114
1 -125 -2z"/>
<path d="M2365 1023 c12 -71 25 -299 25 -439 l0 -154 64 0 c49 0 65 4 70 16
16 41 1 456 -20 572 l-6 32 -69 0 -68 0 4 -27z"/>
<path d="M2284 918 c3 -29 11 -133 18 -230 l12 -178 24 0 25 0 -6 203 c-8 247
-9 257 -50 257 l-30 0 7 -52z"/>
</g>
</svg>
