<?xml version="1.0" standalone="no"?>
<!DOCTYPE svg PUBLIC "-//W3C//DTD SVG 20010904//EN"
 "http://www.w3.org/TR/2001/REC-SVG-20010904/DTD/svg10.dtd">
<svg version="1.0" xmlns="http://www.w3.org/2000/svg"
 width="225.000000pt" height="225.000000pt" viewBox="0 0 225.000000 225.000000"
 preserveAspectRatio="xMidYMid meet">
<metadata>
Created by potrace 1.15, written by Peter Selinger 2001-2017
</metadata>
<g transform="translate(0.000000,225.000000) scale(0.100000,-0.100000)"
fill="#000000" stroke="none">
<path d="M1363 2161 c-32 -43 -110 -151 -173 -239 -63 -89 -118 -161 -121
-161 -3 -1 -16 66 -28 149 -13 83 -29 154 -36 160 -16 13 -973 -135 -992 -153
-10 -10 8 -141 82 -607 52 -327 95 -598 95 -601 0 -21 34 -18 232 16 l28 4 2
-202 3 -202 500 -3 c567 -3 525 -9 525 82 0 47 3 53 34 73 l33 21 43 -43 c41
-42 43 -45 27 -63 -9 -10 -17 -25 -17 -33 0 -16 329 -349 345 -349 16 0 135
124 135 141 0 15 -330 349 -345 349 -5 0 -19 -10 -32 -22 l-23 -22 -45 44 -44
43 31 44 c40 59 66 137 74 221 l7 69 273 377 c151 208 274 382 274 387 0 5 -8
16 -18 24 -53 46 -789 575 -799 575 -7 0 -38 -35 -70 -79z m489 -299 l317
-230 -243 -336 -244 -336 -30 64 c-32 69 -82 130 -137 167 l-35 24 0 93 0 92
97 -70 c100 -73 135 -84 141 -44 2 17 -22 39 -118 108 -99 71 -120 91 -120
112 0 50 -16 64 -73 64 -42 1 -60 6 -91 30 -22 17 -45 30 -52 30 -16 0 -33
-30 -27 -47 4 -10 -22 -13 -107 -13 -86 0 -110 3 -104 13 4 6 100 139 212 294
l205 282 46 -33 c25 -19 189 -137 363 -264z m-888 121 c3 -16 15 -90 27 -166
l21 -138 -26 -37 c-15 -20 -32 -45 -40 -54 -11 -16 -39 -18 -252 -20 l-239 -3
-5 -85 -5 -85 -58 -10 c-65 -11 -88 -33 -61 -59 8 -9 25 -14 37 -12 12 3 37 7
55 10 l33 6 -3 -117 -3 -117 -33 -7 c-45 -9 -60 -24 -45 -47 7 -11 23 -17 47
-16 l37 1 -3 -116 -3 -116 -95 -17 c-52 -9 -97 -14 -99 -12 -5 5 -180 1098
-177 1101 3 3 849 140 873 142 6 1 14 -11 17 -26z m446 -603 l0 -130 -27 7
c-16 5 -181 8 -368 8 l-340 0 0 -25 0 -25 172 -3 171 -2 -58 -56 c-32 -30 -72
-82 -89 -114 l-32 -60 -73 0 c-55 0 -77 -4 -87 -16 -25 -30 1 -49 73 -52 l66
-3 5 -92 c3 -51 8 -102 12 -114 7 -22 5 -22 -76 -25 -82 -3 -84 -4 -84 -28 0
-25 1 -25 97 -28 l96 -3 42 -54 c51 -66 142 -129 217 -151 60 -18 190 -20 242
-5 39 12 46 9 38 -14 -6 -13 -57 -15 -449 -13 l-443 3 -3 550 c-1 303 0 556 3
563 3 9 103 12 450 12 l445 0 0 -130z m3 -208 c80 -37 145 -101 184 -180 25
-51 28 -68 28 -157 0 -88 -3 -107 -27 -157 -34 -74 -107 -147 -183 -183 -53
-26 -71 -29 -155 -30 -88 0 -101 3 -162 33 -136 66 -211 187 -211 337 0 101
27 175 90 245 115 128 283 164 436 92z m462 -892 l130 -130 -30 -30 -30 -30
-135 135 -134 134 24 26 c13 14 28 25 34 25 6 0 70 -58 141 -130z"/>
<path d="M1419 1854 c-9 -11 -10 -20 -2 -32 5 -10 104 -86 219 -170 213 -155
249 -173 249 -123 0 21 -36 51 -219 183 -120 87 -222 158 -226 158 -4 0 -13
-7 -21 -16z"/>
<path d="M535 1709 c-132 -21 -246 -41 -253 -44 -24 -9 -10 -50 18 -53 14 -2
137 15 274 37 257 41 294 53 266 85 -17 21 -28 20 -305 -25z"/>
<path d="M1197 1119 c-139 -34 -227 -144 -227 -286 0 -306 404 -401 548 -128
35 66 37 176 6 246 -58 125 -201 199 -327 168z m163 -86 c77 -41 113 -96 118
-181 6 -105 -35 -180 -123 -221 -92 -43 -200 -20 -266 58 -77 88 -77 203 -3
290 72 83 178 104 274 54z"/>
</g>
</svg>
