<?xml version="1.0" standalone="no"?>
<!DOCTYPE svg PUBLIC "-//W3C//DTD SVG 20010904//EN"
 "http://www.w3.org/TR/2001/REC-SVG-20010904/DTD/svg10.dtd">
<svg version="1.0" xmlns="http://www.w3.org/2000/svg"
 width="225.000000pt" height="225.000000pt" viewBox="0 0 225.000000 225.000000"
 preserveAspectRatio="xMidYMid meet">
<metadata>
Created by potrace 1.15, written by Peter Selinger 2001-2017
</metadata>
<g transform="translate(0.000000,225.000000) scale(0.100000,-0.100000)"
fill="#000000" stroke="none">
<path d="M755 2057 c-163 -67 -234 -214 -206 -429 6 -51 18 -147 26 -213 15
-132 25 -166 79 -273 34 -67 36 -77 36 -165 0 -79 3 -97 19 -111 24 -22 113
-56 146 -56 l25 0 0 205 c0 223 3 236 57 287 40 38 74 48 162 48 l78 0 18 148
c22 185 18 327 -12 393 -28 63 -77 116 -137 147 -44 22 -65 26 -156 29 -66 2
-116 -2 -135 -10z"/>
<path d="M1023 1283 c-42 -5 -80 -51 -88 -106 -4 -23 -5 -206 -3 -407 2 -274
6 -371 16 -388 27 -47 44 -50 290 -58 l232 -7 0 -48 0 -49 -95 0 c-95 0 -95 0
-95 -25 l0 -25 310 0 310 0 0 25 c0 25 0 25 -95 25 l-95 0 0 49 0 48 233 8
c127 4 239 11 248 16 9 4 25 21 35 36 18 26 19 54 22 373 5 427 1 463 -43 507
l-33 33 -559 -2 c-307 0 -572 -3 -590 -5z m1077 -478 l0 -345 -508 0 -509 0
-6 269 c-4 148 -4 303 0 345 l6 76 508 0 509 0 0 -345z"/>
<path d="M427 765 c-401 -180 -427 -203 -427 -377 l0 -68 411 0 411 0 -22 33
c-69 102 -150 317 -166 437 -4 28 -10 52 -13 55 -4 2 -91 -34 -194 -80z"/>
</g>
</svg>
