<?xml version="1.0" standalone="no"?>
<!DOCTYPE svg PUBLIC "-//W3C//DTD SVG 20010904//EN"
 "http://www.w3.org/TR/2001/REC-SVG-20010904/DTD/svg10.dtd">
<svg version="1.0" xmlns="http://www.w3.org/2000/svg"
 width="512.000000pt" height="512.000000pt" viewBox="0 0 512.000000 512.000000"
 preserveAspectRatio="xMidYMid meet">
<metadata>
Created by potrace 1.14, written by Peter Selinger 2001-2017
</metadata>
<g transform="translate(0.000000,512.000000) scale(0.100000,-0.100000)"
fill="#000000" stroke="none">
<path d="M3385 4830 c-268 -31 -528 -121 -743 -259 l-82 -53 -82 52 c-205 132
-449 219 -701 250 -141 18 -424 8 -552 -19 -379 -80 -679 -264 -850 -520 -76
-114 -162 -290 -205 -418 -56 -168 -71 -261 -77 -468 -5 -166 -2 -207 17 -319
24 -143 68 -301 94 -341 27 -41 98 -68 154 -60 57 8 115 61 131 120 9 34 7 55
-19 151 -101 374 -71 689 95 1012 75 147 139 230 237 307 348 275 924 320
1362 107 66 -33 154 -84 195 -113 135 -99 153 -109 196 -109 49 0 87 19 183
91 382 291 947 352 1379 149 215 -100 333 -217 441 -436 106 -212 145 -372
145 -599 1 -159 -13 -255 -58 -417 -41 -143 -31 -203 42 -253 67 -45 178 -28
222 34 25 35 65 164 92 297 33 167 38 439 10 603 -53 308 -211 640 -393 818
-94 94 -184 159 -306 221 -160 83 -321 134 -500 161 -104 16 -332 21 -427 11z"/>
<path d="M2170 3597 c-162 -106 -700 -458 -1195 -781 -495 -324 -911 -598
-924 -610 -107 -95 -34 -276 112 -276 40 0 61 10 193 97 l147 97 16 -24 c9
-13 62 -85 117 -160 340 -452 866 -937 1517 -1398 114 -81 233 -166 264 -190
73 -55 120 -69 172 -53 55 16 543 364 806 575 458 366 821 730 1098 1101 50
66 93 119 97 118 3 -1 73 -45 154 -97 81 -52 163 -98 182 -102 53 -10 119 20
155 68 42 58 46 98 18 155 -23 44 -49 63 -609 429 l-585 382 -5 284 c-5 276
-6 284 -28 316 -66 91 -205 88 -269 -8 -22 -31 -23 -43 -23 -201 0 -102 -4
-169 -10 -169 -5 0 -221 139 -479 309 -258 170 -478 314 -489 320 -12 6 -47
11 -79 11 l-58 0 -295 -193z m1102 -643 c408 -268 812 -532 895 -586 l153
-100 -31 -44 c-215 -313 -631 -737 -1064 -1085 -188 -152 -521 -398 -637 -474
l-28 -17 -137 98 c-708 504 -1199 952 -1540 1408 -57 77 -100 142 -96 146 4 4
287 190 628 412 341 223 730 478 865 566 135 89 246 161 247 162 1 0 336 -219
745 -486z"/>
<path d="M1950 2405 l0 -255 255 0 255 0 0 255 0 255 -255 0 -255 0 0 -255z"/>
<path d="M2660 2405 l0 -255 255 0 255 0 0 255 0 255 -255 0 -255 0 0 -255z"/>
<path d="M1955 1947 c-3 -7 -4 -123 -3 -257 l3 -245 253 -3 252 -2 0 260 0
260 -250 0 c-193 0 -252 -3 -255 -13z"/>
<path d="M2660 1700 l0 -260 253 2 252 3 0 255 0 255 -252 3 -253 2 0 -260z"/>
</g>
</svg>
