<?xml version="1.0" standalone="no"?>
<!DOCTYPE svg PUBLIC "-//W3C//DTD SVG 20010904//EN"
 "http://www.w3.org/TR/2001/REC-SVG-20010904/DTD/svg10.dtd">
<svg version="1.0" xmlns="http://www.w3.org/2000/svg"
 width="225.000000pt" height="225.000000pt" viewBox="0 0 225.000000 225.000000"
 preserveAspectRatio="xMidYMid meet">
<metadata>
Created by potrace 1.15, written by Peter Selinger 2001-2017
</metadata>
<g transform="translate(0.000000,225.000000) scale(0.100000,-0.100000)"
fill="#000000" stroke="none">
<path d="M850 2131 l-75 -16 3 -66 2 -65 -52 -20 c-29 -10 -55 -20 -58 -21 -3
-2 -18 17 -33 42 -16 25 -36 45 -45 45 -22 0 -139 -78 -146 -97 -4 -9 6 -35
23 -62 l30 -46 -41 -42 c-23 -24 -46 -43 -51 -43 -4 0 -25 11 -45 25 -20 14
-44 25 -53 25 -20 0 -99 -118 -99 -147 0 -13 15 -30 41 -47 22 -15 38 -33 36
-39 -3 -7 -13 -32 -23 -57 -9 -25 -18 -46 -19 -48 -1 -1 -23 2 -49 8 -69 15
-81 5 -96 -84 -7 -41 -10 -81 -7 -90 3 -8 30 -19 61 -26 l55 -11 -2 -62 -2
-62 -47 -10 c-70 -15 -74 -22 -59 -101 19 -104 22 -107 92 -99 58 7 59 7 69
-22 6 -15 17 -40 24 -54 13 -26 12 -28 -30 -58 -28 -19 -44 -38 -44 -51 0 -12
18 -48 40 -81 47 -68 65 -73 124 -33 l38 26 45 -45 45 -45 -26 -38 c-40 -59
-35 -77 33 -124 33 -22 69 -40 80 -40 12 0 32 17 51 44 l30 45 58 -24 c53 -22
57 -25 53 -52 -3 -15 -5 -44 -5 -63 l-1 -35 80 -17 c99 -21 112 -15 121 53 l7
50 66 -3 65 -3 9 -45 c12 -65 23 -70 110 -53 95 20 102 27 88 93 -6 29 -10 54
-9 54 28 15 118 46 133 46 14 0 -8 27 -79 99 l-98 98 -51 -20 c-79 -32 -255
-31 -356 2 -148 49 -282 165 -350 303 -45 91 -61 160 -61 263 0 165 50 293
161 410 123 130 260 189 434 189 175 0 310 -59 435 -190 74 -79 120 -161 146
-264 20 -78 15 -252 -9 -316 l-15 -41 99 -99 c76 -76 99 -94 99 -78 0 12 11
46 24 76 l24 55 50 -10 c66 -14 77 -4 92 81 18 97 15 105 -49 117 l-54 10 -1
63 c-1 67 -3 65 67 78 21 3 41 13 44 21 9 22 -18 161 -33 174 -10 8 -27 8 -64
0 -28 -6 -52 -11 -54 -11 -2 0 -13 28 -26 61 -24 66 -25 64 31 94 45 24 44 43
-6 117 -51 77 -65 82 -126 41 l-40 -26 -44 44 -45 44 30 46 c19 29 28 53 24
63 -9 23 -118 96 -143 96 -12 0 -30 -17 -48 -45 -15 -25 -30 -44 -33 -42 -3 1
-29 11 -58 22 -53 20 -53 20 -47 55 3 19 8 42 11 51 8 29 -20 48 -93 64 -40 8
-79 12 -87 9 -8 -3 -20 -30 -26 -60 l-11 -54 -64 0 -64 0 -7 45 c-6 42 -26 76
-42 74 -4 0 -41 -8 -82 -18z m83 -38 c3 -10 8 -31 12 -48 11 -49 22 -55 101
-55 83 0 96 10 108 83 8 42 4 41 79 26 61 -13 61 -13 47 -73 -5 -22 -5 -46 -1
-54 10 -17 141 -71 158 -65 6 2 23 22 37 44 15 21 29 39 32 39 4 0 81 -49 102
-66 2 -1 -8 -20 -22 -41 -14 -20 -26 -47 -26 -58 0 -22 97 -125 118 -125 7 0
33 13 57 30 l43 29 37 -55 c20 -31 35 -57 33 -58 -90 -55 -102 -72 -78 -114 6
-9 19 -39 30 -65 l20 -49 62 4 62 3 12 -58 c6 -31 9 -59 5 -61 -3 -2 -24 -7
-46 -11 -61 -11 -65 -18 -65 -105 0 -88 5 -96 68 -106 23 -4 44 -9 46 -13 2
-3 -1 -32 -7 -64 l-10 -57 -61 2 -61 3 -25 -53 -25 -52 -63 63 -63 64 15 76
c71 340 -132 665 -469 752 -32 8 -100 15 -150 15 -405 0 -703 -368 -620 -765
73 -350 441 -574 784 -479 l54 16 64 -65 65 -64 -54 -20 -53 -21 2 -65 2 -65
-42 -6 c-23 -4 -52 -9 -63 -12 -19 -5 -22 0 -29 43 -4 26 -12 54 -17 61 -15
17 -162 17 -176 -1 -6 -7 -14 -32 -18 -55 -4 -23 -10 -45 -14 -47 -4 -3 -33 0
-64 7 l-57 11 3 61 3 61 -49 23 c-27 13 -64 26 -82 29 -30 5 -35 1 -65 -40
l-32 -45 -53 35 c-31 21 -51 40 -47 47 3 6 15 23 25 38 31 44 23 70 -36 127
-30 28 -59 51 -63 51 -5 0 -17 -6 -28 -13 -11 -8 -32 -21 -46 -31 l-26 -16
-36 53 -35 54 44 31 c45 32 54 55 34 90 -6 9 -19 39 -30 65 l-20 49 -60 -7
c-59 -7 -59 -7 -66 21 -4 15 -7 43 -8 62 -1 35 0 36 49 46 l50 11 3 87 c3 98
2 100 -75 113 -37 6 -42 10 -38 28 3 12 9 40 13 62 l8 40 64 0 63 0 29 70 c16
38 26 75 24 82 -3 7 -23 25 -45 41 l-40 29 35 51 c19 29 37 52 40 52 3 0 22
-11 42 -25 20 -14 44 -25 53 -25 9 0 42 27 73 60 62 65 62 64 13 133 -10 16
-18 29 -16 31 20 16 99 66 103 66 3 0 17 -18 32 -39 14 -22 32 -42 39 -45 14
-5 139 44 156 61 9 9 7 45 -5 110 -1 7 77 29 111 32 6 1 14 -7 16 -16z"/>
</g>
</svg>
