<svg xmlns="http://www.w3.org/2000/svg" width="340" height="280" viewBox="0 0 340 280" preserveAspectRatio="xMidYMid meet" style="width: 100%; height: 100%;"><defs><clipPath id="animationMask_NIIBqlCM2B"><rect width="340" height="280" x="0" y="0"></rect></clipPath><mask id="ly_1PZEujfOtC" mask-type="alpha"><g transform="matrix(0,0,0,0,238.8273,187.5)" opacity="1" style="user-select: none;"><g opacity="1" transform="matrix(1,0,0,1,163.987,140)"><path fill="rgb(237,237,237)" fill-opacity="1" d=" M84,0 C84,46.392 46.392,84 0,84 C-46.392,84 -84,46.392 -84,0 C-84,-46.392 -46.392,-84 0,-84 C46.392,-84 84,-46.392 84,0z"></path></g></g></mask><clipPath id="cp_xlgxPjjG"><path d="M0,0 L340,0 L340,280 L0,280z"></path></clipPath><filter id="cbYzC2un93" filterUnits="objectBoundingBox" x="0%" y="0%" width="100%" height="100%"><feColorMatrix type="matrix" color-interpolation-filters="linearRGB" values="0.3333 0.3333 0.3333 0 0 0.3333 0.3333 0.3333 0 0 0.3333 0.3333 0.3333 0 0 0 0 0 1 0" result="f1"></feColorMatrix><feColorMatrix type="matrix" color-interpolation-filters="sRGB" values="1 0 0 0 0 0 1 0 0 0 0 0 1 0 0 0 0 0 1 0" result="f2"></feColorMatrix></filter><clipPath id="cp_HhKlessp"><path d="M0,0 L340,0 L340,280 L0,280z"></path></clipPath><clipPath id="cp_1EzVqVd9"><path d="M0,0 L340,0 L340,280 L0,280z"></path></clipPath><clipPath id="cp_dmjf013k"><path d="M0,0 L340,0 L340,10 L0,10z"></path></clipPath><filter id="0Q48ERxVs0" filterUnits="objectBoundingBox" x="0%" y="0%" width="100%" height="100%"><feColorMatrix type="matrix" color-interpolation-filters="linearRGB" values="0.3333 0.3333 0.3333 0 0 0.3333 0.3333 0.3333 0 0 0.3333 0.3333 0.3333 0 0 0 0 0 1 0" result="f1"></feColorMatrix><feColorMatrix type="matrix" color-interpolation-filters="sRGB" values="0 0 0 0 0.92 0 0 0 0 0.26 0 0 0 0 0.21 0 0 0 1 0" result="f2"></feColorMatrix></filter><clipPath id="cp_sBtvxmwb"><path d="M0,0 L10,0 L10,10 L0,10z"></path></clipPath><clipPath id="cp_HWw2TGds"><path d="M0,0 L10,0 L10,10 L0,10z"></path></clipPath><clipPath id="cp_1fa0GrQF"><path d="M0,0 L10,0 L10,10 L0,10z"></path></clipPath><clipPath id="cp_edG4Xh96"><path d="M0,0 L10,0 L10,10 L0,10z"></path></clipPath><clipPath id="cp_nnwimeLW"><path d="M0,0 L10,0 L10,10 L0,10z"></path></clipPath><clipPath id="cp_8YNYqfLH"><path d="M0,0 L10,0 L10,10 L0,10z"></path></clipPath><clipPath id="cp_7dcnGRC4"><path d="M0,0 L10,0 L10,10 L0,10z"></path></clipPath><clipPath id="cp_AJU7jpiX"><path d="M0,0 L10,0 L10,10 L0,10z"></path></clipPath><clipPath id="cp_HXgI3nZm"><path d="M0,0 L10,0 L10,10 L0,10z"></path></clipPath><clipPath id="cp_l8lj1EL3"><path d="M0,0 L10,0 L10,10 L0,10z"></path></clipPath><clipPath id="cp_hRzGY5H9"><path d="M0,0 L10,0 L10,10 L0,10z"></path></clipPath><clipPath id="cp_84BgwrES"><path d="M0,0 L10,0 L10,10 L0,10z"></path></clipPath><clipPath id="cp_MlV2goQ9"><path d="M0,0 L10,0 L10,10 L0,10z"></path></clipPath><clipPath id="cp_t2rTUVk4"><path d="M0,0 L10,0 L10,10 L0,10z"></path></clipPath><clipPath id="cp_nADkA65c"><path d="M0,0 L10,0 L10,10 L0,10z"></path></clipPath><clipPath id="cp_OFzMcNo2"><path d="M0,0 L10,0 L10,10 L0,10z"></path></clipPath><clipPath id="cp_ULoV3z91"><path d="M0,0 L10,0 L10,10 L0,10z"></path></clipPath><clipPath id="cp_2HhJL5nW"><path d="M0,0 L10,0 L10,10 L0,10z"></path></clipPath><clipPath id="cp_VjnrIORG"><path d="M0,0 L340,0 L340,10 L0,10z"></path></clipPath><filter id="CMtpP2j4pE" filterUnits="objectBoundingBox" x="0%" y="0%" width="100%" height="100%"><feColorMatrix type="matrix" color-interpolation-filters="linearRGB" values="0.3333 0.3333 0.3333 0 0 0.3333 0.3333 0.3333 0 0 0.3333 0.3333 0.3333 0 0 0 0 0 1 0" result="f1"></feColorMatrix><feColorMatrix type="matrix" color-interpolation-filters="sRGB" values="0 0 0 0 0.26 0 0 0 0 0.52 0 0 0 0 0.96 0 0 0 1 0" result="f2"></feColorMatrix></filter><clipPath id="cp_gli6US2W"><path d="M0,0 L10,0 L10,10 L0,10z"></path></clipPath><clipPath id="cp_prlkh4kJ"><path d="M0,0 L10,0 L10,10 L0,10z"></path></clipPath><clipPath id="cp_NjGvWQ47"><path d="M0,0 L10,0 L10,10 L0,10z"></path></clipPath><clipPath id="cp_vZ1vO4f9"><path d="M0,0 L10,0 L10,10 L0,10z"></path></clipPath><clipPath id="cp_8uLeTbhd"><path d="M0,0 L10,0 L10,10 L0,10z"></path></clipPath><clipPath id="cp_zmstXDpH"><path d="M0,0 L10,0 L10,10 L0,10z"></path></clipPath><clipPath id="cp_gFxo668I"><path d="M0,0 L10,0 L10,10 L0,10z"></path></clipPath><clipPath id="cp_uYEzgHh6"><path d="M0,0 L10,0 L10,10 L0,10z"></path></clipPath><clipPath id="cp_VBRpgQEr"><path d="M0,0 L10,0 L10,10 L0,10z"></path></clipPath><clipPath id="cp_grUELbDC"><path d="M0,0 L10,0 L10,10 L0,10z"></path></clipPath><clipPath id="cp_3nJmLG4Q"><path d="M0,0 L10,0 L10,10 L0,10z"></path></clipPath><clipPath id="cp_AJPN7wvk"><path d="M0,0 L10,0 L10,10 L0,10z"></path></clipPath><clipPath id="cp_kgZgv7sr"><path d="M0,0 L10,0 L10,10 L0,10z"></path></clipPath><clipPath id="cp_cjFRWmhG"><path d="M0,0 L10,0 L10,10 L0,10z"></path></clipPath><clipPath id="cp_WQZjI49s"><path d="M0,0 L10,0 L10,10 L0,10z"></path></clipPath><clipPath id="cp_23kbvd6O"><path d="M0,0 L10,0 L10,10 L0,10z"></path></clipPath><clipPath id="cp_kV3lAkN5"><path d="M0,0 L10,0 L10,10 L0,10z"></path></clipPath><clipPath id="cp_fbICEOxF"><path d="M0,0 L10,0 L10,10 L0,10z"></path></clipPath><clipPath id="cp_ZAfjyqvp"><path d="M0,0 L340,0 L340,10 L0,10z"></path></clipPath><filter id="73L0YJldFI" filterUnits="objectBoundingBox" x="0%" y="0%" width="100%" height="100%"><feColorMatrix type="matrix" color-interpolation-filters="linearRGB" values="0.3333 0.3333 0.3333 0 0 0.3333 0.3333 0.3333 0 0 0.3333 0.3333 0.3333 0 0 0 0 0 1 0" result="f1"></feColorMatrix><feColorMatrix type="matrix" color-interpolation-filters="sRGB" values="0 0 0 0 0.98 0 0 0 0 0.73 0 0 0 0 0.02 0 0 0 1 0" result="f2"></feColorMatrix></filter><clipPath id="cp_jxkLWIlP"><path d="M0,0 L10,0 L10,10 L0,10z"></path></clipPath><clipPath id="cp_wwJHE7Nz"><path d="M0,0 L10,0 L10,10 L0,10z"></path></clipPath><clipPath id="cp_acLSuKrQ"><path d="M0,0 L10,0 L10,10 L0,10z"></path></clipPath><clipPath id="cp_YT6r4462"><path d="M0,0 L10,0 L10,10 L0,10z"></path></clipPath><clipPath id="cp_Vdii4UOk"><path d="M0,0 L10,0 L10,10 L0,10z"></path></clipPath><clipPath id="cp_AizSxiee"><path d="M0,0 L10,0 L10,10 L0,10z"></path></clipPath><clipPath id="cp_3BqpxY0W"><path d="M0,0 L10,0 L10,10 L0,10z"></path></clipPath><clipPath id="cp_OqvVpgAS"><path d="M0,0 L10,0 L10,10 L0,10z"></path></clipPath><clipPath id="cp_iZe29d1C"><path d="M0,0 L10,0 L10,10 L0,10z"></path></clipPath><clipPath id="cp_gZd68Et9"><path d="M0,0 L10,0 L10,10 L0,10z"></path></clipPath><clipPath id="cp_3xTfZ4ue"><path d="M0,0 L10,0 L10,10 L0,10z"></path></clipPath><clipPath id="cp_kTPGdFY4"><path d="M0,0 L10,0 L10,10 L0,10z"></path></clipPath><clipPath id="cp_D35kuKzk"><path d="M0,0 L10,0 L10,10 L0,10z"></path></clipPath><clipPath id="cp_P659Jqda"><path d="M0,0 L10,0 L10,10 L0,10z"></path></clipPath><clipPath id="cp_QNDudgtq"><path d="M0,0 L10,0 L10,10 L0,10z"></path></clipPath><clipPath id="cp_dcsRnVVY"><path d="M0,0 L10,0 L10,10 L0,10z"></path></clipPath><clipPath id="cp_WjgV83Bc"><path d="M0,0 L10,0 L10,10 L0,10z"></path></clipPath><clipPath id="cp_yuvfU9JP"><path d="M0,0 L10,0 L10,10 L0,10z"></path></clipPath></defs><g clip-path="url(#animationMask_NIIBqlCM2B)"><g transform="matrix(1,0,0,1,-2.665999999999997,0)" opacity="1" style="user-select: none;"><g opacity="1" transform="matrix(1,0,0,1,187.664,257.048)"><path fill="rgb(237,237,237)" fill-opacity="1" d=" M95.6,0 C95.6,1.858 52.798,3.364 -0.001,3.364 C-52.797999999999995,3.364 -95.6,1.858 -95.6,0 C-95.6,-1.857 -52.797999999999995,-3.364 -0.001,-3.364 C52.798,-3.364 95.6,-1.857 95.6,0z"></path></g></g><g transform="matrix(0.40665,0,0,0.40665,75.72765000000001,36.3554)" opacity="1" style="user-select: none;"><g opacity="1" transform="matrix(1,0,0,1,199.199,255.5)"><path fill="rgb(66,132,244)" fill-opacity="1" d=" M-7200.199,-7129.5 C-7200.199,-7129.5 7199.801,-7129.5 7199.801,-7129.5 C7199.801,-7129.5 7199.801,7270.5 7199.801,7270.5 C7199.801,7270.5 -7200.199,7270.5 -7200.199,7270.5 C-7200.199,7270.5 -7200.199,-7129.5 -7200.199,-7129.5z M-7200.199,7270.5 C-7200.199,7270.5 7199.801,7270.5 7199.801,7270.5 C7199.801,7270.5 7199.801,-7129.5 7199.801,-7129.5 C7199.801,-7129.5 -7200.199,-7129.5 -7200.199,-7129.5 C-7200.199,-7129.5 -7200.199,7270.5 -7200.199,7270.5z M-197.699,-197.907 C-197.699,-197.907 -197.699,-95.139 -197.699,-95.139 C-197.699,-63.221 -198.188,-31.482 -192.816,0.106 C-186.675,36.209 -174.322,70.99000000000001 -157.409,103.427 C-122.779,169.841 -68.144,223.45100000000002 0.189,254.448 C68.52499999999999,223.45100000000002 123.155,169.841 157.785,103.427 C174.697,70.99000000000001 186.674,36.209 192.815,0.106 C198.188,-31.482 197.301,-63.221 197.301,-95.139 C197.301,-95.139 197.301,-197.907 197.301,-197.907 C197.301,-197.907 -0.2,-254.448 -0.2,-254.448 C-0.2,-254.448 -197.699,-197.907 -197.699,-197.907z"></path><g opacity="1" transform="matrix(1,0,0,1,0,0)"></g></g></g><g transform="matrix(0.7319599999999999,0,0,0.7319599999999999,-569.71832,-235.09751999999997)" opacity="1" style="user-select: none;"><g opacity="1" transform="matrix(1.01092,0,0,1.00025,992.5,492.487)"><path stroke-linecap="butt" stroke-linejoin="miter" fill-opacity="0" stroke-miterlimit="4" stroke="rgb(255,255,255)" stroke-opacity="1" stroke-width="15" d=" M-27,16.355 C-27,16.355 -26.75,-38.712 -26.75,-38.712 C-26.75,-54.304 -15.566,-66.99 -0.551,-66.985 C14.449,-66.98 25.654,-54.304 25.654,-38.712 C25.654,-38.712 25.64,-35.524 25.618,-30.682"></path></g></g><g transform="matrix(0.7319599999999999,0,0,0.7319599999999999,-569.71832,-230.70651999999998)" opacity="1" style="user-select: none;"><g opacity="1" transform="matrix(1,0,0,1,992.5,491.987)"><path fill="rgb(255,255,255)" fill-opacity="1" d=" M42.695,-11.987 C42.695,-11.987 -42.563,-11.987 -42.563,-11.987 C-47.253,-11.987 -51.5,-8.021 -51.5,-3.333 C-51.5,-3.333 -51.5,64.872 -51.5,64.872 C-51.5,69.561 -47.253,73.013 -42.563,73.013 C-42.563,73.013 42.695,73.013 42.695,73.013 C47.384,73.013 51.5,69.561 51.5,64.872 C51.5,64.872 51.5,-3.334 51.5,-3.334 C51.5,-8.021 47.384,-11.987 42.695,-11.987z"></path></g><g opacity="1" transform="matrix(1,0,0,1,992.5,491.987)"><path fill="rgb(51,102,183)" fill-opacity="1" d=" M5.5,34.361 C5.5,34.361 5.5,49.013 5.5,49.013 C5.5,49.013 -5.5,49.013 -5.5,49.013 C-5.5,49.013 -5.5,34.361 -5.5,34.361 C-10.5,32.238 -13.929,27.293 -13.929,21.53 C-13.929,13.832 -7.66,7.591 0.038,7.591 C7.736000000000001,7.591 13.981,13.832 13.981,21.53 C13.981,27.293 10.5,32.238 5.5,34.361z"></path></g></g><g transform="matrix(0.5850000000000001,0,0,0.5850000000000001,142.894905,105.6)" opacity="1" style="user-select: none;"><g opacity="1" transform="matrix(1,0,0,1,163.987,140)"><path fill="rgb(237,237,237)" fill-opacity="1" d=" M84,0 C84,46.392 46.392,84 0,84 C-46.392,84 -84,46.392 -84,0 C-84,-46.392 -46.392,-84 0,-84 C46.392,-84 84,-46.392 84,0z"></path></g></g><g class="1" clip-path="url(#cp_HhKlessp)" transform="matrix(0.5950854000000001,0,0,0.5950854000000001,153.093912,106.37360399999997)" opacity="1"><g clip-path="url(#cp_ZAfjyqvp)" filter="url(#73L0YJldFI)" transform="matrix(1,0,0,1,105,159.333)" opacity="1"><g clip-path="url(#cp_yuvfU9JP)" transform="matrix(1,0,0,1,324,0)" opacity="1"><g transform="matrix(1,0,0,1,40.449,9.449)" opacity="1" style="user-select: none;"><g opacity="1" transform="matrix(1,0,0,1,-35.449,-4.449)"><path fill="rgb(216,40,40)" fill-opacity="1" d=" M0,-4.295433527333397 C2.3706497637353015,-4.295433527333397 4.295433527333397,-2.3706497637353015 4.295433527333397,0 C4.295433527333397,2.3706497637353015 2.3706497637353015,4.295433527333397 0,4.295433527333397 C-2.3706497637353015,4.295433527333397 -4.295433527333397,2.3706497637353015 -4.295433527333397,0 C-4.295433527333397,-2.3706497637353015 -2.3706497637353015,-4.295433527333397 0,-4.295433527333397z"></path><path stroke-linecap="butt" stroke-linejoin="miter" fill-opacity="0" stroke-miterlimit="4" stroke="rgb(255,255,255)" stroke-opacity="1" stroke-width="0" d=" M0,-4.295433527333397 C2.3706497637353015,-4.295433527333397 4.295433527333397,-2.3706497637353015 4.295433527333397,0 C4.295433527333397,2.3706497637353015 2.3706497637353015,4.295433527333397 0,4.295433527333397 C-2.3706497637353015,4.295433527333397 -4.295433527333397,2.3706497637353015 -4.295433527333397,0 C-4.295433527333397,-2.3706497637353015 -2.3706497637353015,-4.295433527333397 0,-4.295433527333397z"></path></g></g></g><g clip-path="url(#cp_WjgV83Bc)" transform="matrix(1,0,0,1,304,0)" opacity="1"><g transform="matrix(1,0,0,1,40.449,9.449)" opacity="1" style="user-select: none;"><g opacity="1" transform="matrix(1,0,0,1,-35.449,-4.449)"><path fill="rgb(216,40,40)" fill-opacity="1" d=" M0,-4.987143480976966 C2.7524044871511877,-4.987143480976966 4.987143480976966,-2.7524044871511877 4.987143480976966,0 C4.987143480976966,2.7524044871511877 2.7524044871511877,4.987143480976966 0,4.987143480976966 C-2.7524044871511877,4.987143480976966 -4.987143480976966,2.7524044871511877 -4.987143480976966,0 C-4.987143480976966,-2.7524044871511877 -2.7524044871511877,-4.987143480976966 0,-4.987143480976966z"></path><path stroke-linecap="butt" stroke-linejoin="miter" fill-opacity="0" stroke-miterlimit="4" stroke="rgb(255,255,255)" stroke-opacity="1" stroke-width="0" d=" M0,-4.987143480976966 C2.7524044871511877,-4.987143480976966 4.987143480976966,-2.7524044871511877 4.987143480976966,0 C4.987143480976966,2.7524044871511877 2.7524044871511877,4.987143480976966 0,4.987143480976966 C-2.7524044871511877,4.987143480976966 -4.987143480976966,2.7524044871511877 -4.987143480976966,0 C-4.987143480976966,-2.7524044871511877 -2.7524044871511877,-4.987143480976966 0,-4.987143480976966z"></path></g></g></g><g clip-path="url(#cp_dcsRnVVY)" transform="matrix(1,0,0,1,284,0)" opacity="1"><g transform="matrix(1,0,0,1,40.449,9.449)" opacity="1" style="user-select: none;"><g opacity="1" transform="matrix(1,0,0,1,-35.449,-4.449)"><path fill="rgb(216,40,40)" fill-opacity="1" d=" M0,-2.9899645124921195 C1.6501614144444006,-2.9899645124921195 2.9899645124921195,-1.6501614144444006 2.9899645124921195,0 C2.9899645124921195,1.6501614144444006 1.6501614144444006,2.9899645124921195 0,2.9899645124921195 C-1.6501614144444006,2.9899645124921195 -2.9899645124921195,1.6501614144444006 -2.9899645124921195,0 C-2.9899645124921195,-1.6501614144444006 -1.6501614144444006,-2.9899645124921195 0,-2.9899645124921195z"></path><path stroke-linecap="butt" stroke-linejoin="miter" fill-opacity="0" stroke-miterlimit="4" stroke="rgb(255,255,255)" stroke-opacity="1" stroke-width="0" d=" M0,-2.9899645124921195 C1.6501614144444006,-2.9899645124921195 2.9899645124921195,-1.6501614144444006 2.9899645124921195,0 C2.9899645124921195,1.6501614144444006 1.6501614144444006,2.9899645124921195 0,2.9899645124921195 C-1.6501614144444006,2.9899645124921195 -2.9899645124921195,1.6501614144444006 -2.9899645124921195,0 C-2.9899645124921195,-1.6501614144444006 -1.6501614144444006,-2.9899645124921195 0,-2.9899645124921195z"></path></g></g></g><g clip-path="url(#cp_QNDudgtq)" transform="matrix(1,0,0,1,264,0)" opacity="1"><g transform="matrix(1,0,0,1,40.449,9.449)" opacity="1" style="user-select: none;"><g opacity="1" transform="matrix(1,0,0,1,-35.449,-4.449)"><path fill="rgb(216,40,40)" fill-opacity="1" d=" M0,-0.06208187888807424 C0.03426298895832817,-0.06208187888807424 0.06208187888807424,-0.03426298895832817 0.06208187888807424,0 C0.06208187888807424,0.03426298895832817 0.03426298895832817,0.06208187888807424 0,0.06208187888807424 C-0.03426298895832817,0.06208187888807424 -0.06208187888807424,0.03426298895832817 -0.06208187888807424,0 C-0.06208187888807424,-0.03426298895832817 -0.03426298895832817,-0.06208187888807424 0,-0.06208187888807424z"></path><path stroke-linecap="butt" stroke-linejoin="miter" fill-opacity="0" stroke-miterlimit="4" stroke="rgb(255,255,255)" stroke-opacity="1" stroke-width="0" d=" M0,-0.06208187888807424 C0.03426298895832817,-0.06208187888807424 0.06208187888807424,-0.03426298895832817 0.06208187888807424,0 C0.06208187888807424,0.03426298895832817 0.03426298895832817,0.06208187888807424 0,0.06208187888807424 C-0.03426298895832817,0.06208187888807424 -0.06208187888807424,0.03426298895832817 -0.06208187888807424,0 C-0.06208187888807424,-0.03426298895832817 -0.03426298895832817,-0.06208187888807424 0,-0.06208187888807424z"></path></g></g></g><g clip-path="url(#cp_P659Jqda)"><g style="user-select: none; display: none;"><g><path style="display: none;"></path><path stroke-linecap="butt" stroke-linejoin="miter" fill-opacity="0" stroke-miterlimit="4" style="display: none;"></path></g></g></g><g clip-path="url(#cp_D35kuKzk)"><g style="user-select: none; display: none;"><g><path style="display: none;"></path><path stroke-linecap="butt" stroke-linejoin="miter" fill-opacity="0" stroke-miterlimit="4" style="display: none;"></path></g></g></g><g clip-path="url(#cp_kTPGdFY4)"><g style="user-select: none; display: none;"><g><path style="display: none;"></path><path stroke-linecap="butt" stroke-linejoin="miter" fill-opacity="0" stroke-miterlimit="4" style="display: none;"></path></g></g></g><g clip-path="url(#cp_3xTfZ4ue)"><g style="user-select: none; display: none;"><g><path style="display: none;"></path><path stroke-linecap="butt" stroke-linejoin="miter" fill-opacity="0" stroke-miterlimit="4" style="display: none;"></path></g></g></g><g clip-path="url(#cp_gZd68Et9)"><g style="user-select: none; display: none;"><g><path style="display: none;"></path><path stroke-linecap="butt" stroke-linejoin="miter" fill-opacity="0" stroke-miterlimit="4" style="display: none;"></path></g></g></g><g clip-path="url(#cp_iZe29d1C)"><g style="user-select: none; display: none;"><g><path style="display: none;"></path><path stroke-linecap="butt" stroke-linejoin="miter" fill-opacity="0" stroke-miterlimit="4" style="display: none;"></path></g></g></g><g clip-path="url(#cp_OqvVpgAS)"><g style="user-select: none; display: none;"><g><path style="display: none;"></path><path stroke-linecap="butt" stroke-linejoin="miter" fill-opacity="0" stroke-miterlimit="4" style="display: none;"></path></g></g></g><g clip-path="url(#cp_3BqpxY0W)"><g style="user-select: none; display: none;"><g><path style="display: none;"></path><path stroke-linecap="butt" stroke-linejoin="miter" fill-opacity="0" stroke-miterlimit="4" style="display: none;"></path></g></g></g><g clip-path="url(#cp_AizSxiee)"><g style="user-select: none; display: none;"><g><path style="display: none;"></path><path stroke-linecap="butt" stroke-linejoin="miter" fill-opacity="0" stroke-miterlimit="4" style="display: none;"></path></g></g></g><g clip-path="url(#cp_Vdii4UOk)"><g style="user-select: none; display: none;"><g><path style="display: none;"></path><path stroke-linecap="butt" stroke-linejoin="miter" fill-opacity="0" stroke-miterlimit="4" style="display: none;"></path></g></g></g><g clip-path="url(#cp_YT6r4462)"><g style="user-select: none; display: none;"><g><path style="display: none;"></path><path stroke-linecap="butt" stroke-linejoin="miter" fill-opacity="0" stroke-miterlimit="4" style="display: none;"></path></g></g></g><g clip-path="url(#cp_acLSuKrQ)"><g style="user-select: none; display: none;"><g><path style="display: none;"></path><path stroke-linecap="butt" stroke-linejoin="miter" fill-opacity="0" stroke-miterlimit="4" style="display: none;"></path></g></g></g><g clip-path="url(#cp_wwJHE7Nz)"><g style="user-select: none; display: none;"><g><path style="display: none;"></path><path stroke-linecap="butt" stroke-linejoin="miter" fill-opacity="0" stroke-miterlimit="4" style="display: none;"></path></g></g></g><g clip-path="url(#cp_jxkLWIlP)"><g style="user-select: none; display: none;"><g><path style="display: none;"></path><path stroke-linecap="butt" stroke-linejoin="miter" fill-opacity="0" stroke-miterlimit="4" style="display: none;"></path></g></g></g></g><g clip-path="url(#cp_VjnrIORG)" filter="url(#CMtpP2j4pE)" transform="matrix(1,0,0,1,105,131.833)" opacity="1"><g clip-path="url(#cp_fbICEOxF)" transform="matrix(1,0,0,1,324,0)" opacity="1"><g transform="matrix(1,0,0,1,40.449,9.449)" opacity="1" style="user-select: none;"><g opacity="1" transform="matrix(1,0,0,1,-35.449,-4.449)"><path fill="rgb(216,40,40)" fill-opacity="1" d=" M0,0 C0,0 0,0 0,0 C0,0 0,0 0,0 C0,0 0,0 0,0 C0,0 0,0 0,0z"></path><path stroke-linecap="butt" stroke-linejoin="miter" fill-opacity="0" stroke-miterlimit="4" stroke="rgb(255,255,255)" stroke-opacity="1" stroke-width="0" d=" M0,0 C0,0 0,0 0,0 C0,0 0,0 0,0 C0,0 0,0 0,0 C0,0 0,0 0,0z"></path></g></g></g><g clip-path="url(#cp_kV3lAkN5)" transform="matrix(1,0,0,1,304,0)" opacity="1"><g transform="matrix(1,0,0,1,40.449,9.449)" opacity="1" style="user-select: none;"><g opacity="1" transform="matrix(1,0,0,1,-35.449,-4.449)"><path fill="rgb(216,40,40)" fill-opacity="1" d=" M0,-1.383941269192328 C0.7637971864672458,-1.383941269192328 1.383941269192328,-0.7637971864672458 1.383941269192328,0 C1.383941269192328,0.7637971864672458 0.7637971864672458,1.383941269192328 0,1.383941269192328 C-0.7637971864672458,1.383941269192328 -1.383941269192328,0.7637971864672458 -1.383941269192328,0 C-1.383941269192328,-0.7637971864672458 -0.7637971864672458,-1.383941269192328 0,-1.383941269192328z"></path><path stroke-linecap="butt" stroke-linejoin="miter" fill-opacity="0" stroke-miterlimit="4" stroke="rgb(255,255,255)" stroke-opacity="1" stroke-width="0" d=" M0,-1.383941269192328 C0.7637971864672458,-1.383941269192328 1.383941269192328,-0.7637971864672458 1.383941269192328,0 C1.383941269192328,0.7637971864672458 0.7637971864672458,1.383941269192328 0,1.383941269192328 C-0.7637971864672458,1.383941269192328 -1.383941269192328,0.7637971864672458 -1.383941269192328,0 C-1.383941269192328,-0.7637971864672458 -0.7637971864672458,-1.383941269192328 0,-1.383941269192328z"></path></g></g></g><g clip-path="url(#cp_23kbvd6O)" transform="matrix(1,0,0,1,284,0)" opacity="1"><g transform="matrix(1,0,0,1,40.449,9.449)" opacity="1" style="user-select: none;"><g opacity="1" transform="matrix(1,0,0,1,-35.449,-4.449)"><path fill="rgb(216,40,40)" fill-opacity="1" d=" M0,-2.990690189950391 C1.6505619158336204,-2.990690189950391 2.990690189950391,-1.6505619158336204 2.990690189950391,0 C2.990690189950391,1.6505619158336204 1.6505619158336204,2.990690189950391 0,2.990690189950391 C-1.6505619158336204,2.990690189950391 -2.990690189950391,1.6505619158336204 -2.990690189950391,0 C-2.990690189950391,-1.6505619158336204 -1.6505619158336204,-2.990690189950391 0,-2.990690189950391z"></path><path stroke-linecap="butt" stroke-linejoin="miter" fill-opacity="0" stroke-miterlimit="4" stroke="rgb(255,255,255)" stroke-opacity="1" stroke-width="0" d=" M0,-2.990690189950391 C1.6505619158336204,-2.990690189950391 2.990690189950391,-1.6505619158336204 2.990690189950391,0 C2.990690189950391,1.6505619158336204 1.6505619158336204,2.990690189950391 0,2.990690189950391 C-1.6505619158336204,2.990690189950391 -2.990690189950391,1.6505619158336204 -2.990690189950391,0 C-2.990690189950391,-1.6505619158336204 -1.6505619158336204,-2.990690189950391 0,-2.990690189950391z"></path></g></g></g><g clip-path="url(#cp_WQZjI49s)" transform="matrix(1,0,0,1,264,0)" opacity="1"><g transform="matrix(1,0,0,1,40.449,9.449)" opacity="1" style="user-select: none;"><g opacity="1" transform="matrix(1,0,0,1,-35.449,-4.449)"><path fill="rgb(216,40,40)" fill-opacity="1" d=" M0,-4.295433527333397 C2.3706497637353015,-4.295433527333397 4.295433527333397,-2.3706497637353015 4.295433527333397,0 C4.295433527333397,2.3706497637353015 2.3706497637353015,4.295433527333397 0,4.295433527333397 C-2.3706497637353015,4.295433527333397 -4.295433527333397,2.3706497637353015 -4.295433527333397,0 C-4.295433527333397,-2.3706497637353015 -2.3706497637353015,-4.295433527333397 0,-4.295433527333397z"></path><path stroke-linecap="butt" stroke-linejoin="miter" fill-opacity="0" stroke-miterlimit="4" stroke="rgb(255,255,255)" stroke-opacity="1" stroke-width="0" d=" M0,-4.295433527333397 C2.3706497637353015,-4.295433527333397 4.295433527333397,-2.3706497637353015 4.295433527333397,0 C4.295433527333397,2.3706497637353015 2.3706497637353015,4.295433527333397 0,4.295433527333397 C-2.3706497637353015,4.295433527333397 -4.295433527333397,2.3706497637353015 -4.295433527333397,0 C-4.295433527333397,-2.3706497637353015 -2.3706497637353015,-4.295433527333397 0,-4.295433527333397z"></path></g></g></g><g clip-path="url(#cp_cjFRWmhG)" transform="matrix(1,0,0,1,244,0)" opacity="1"><g transform="matrix(1,0,0,1,40.449,9.449)" opacity="1" style="user-select: none;"><g opacity="1" transform="matrix(1,0,0,1,-35.449,-4.449)"><path fill="rgb(216,40,40)" fill-opacity="1" d=" M0,-4.987143480976966 C2.7524044871511877,-4.987143480976966 4.987143480976966,-2.7524044871511877 4.987143480976966,0 C4.987143480976966,2.7524044871511877 2.7524044871511877,4.987143480976966 0,4.987143480976966 C-2.7524044871511877,4.987143480976966 -4.987143480976966,2.7524044871511877 -4.987143480976966,0 C-4.987143480976966,-2.7524044871511877 -2.7524044871511877,-4.987143480976966 0,-4.987143480976966z"></path><path stroke-linecap="butt" stroke-linejoin="miter" fill-opacity="0" stroke-miterlimit="4" stroke="rgb(255,255,255)" stroke-opacity="1" stroke-width="0" d=" M0,-4.987143480976966 C2.7524044871511877,-4.987143480976966 4.987143480976966,-2.7524044871511877 4.987143480976966,0 C4.987143480976966,2.7524044871511877 2.7524044871511877,4.987143480976966 0,4.987143480976966 C-2.7524044871511877,4.987143480976966 -4.987143480976966,2.7524044871511877 -4.987143480976966,0 C-4.987143480976966,-2.7524044871511877 -2.7524044871511877,-4.987143480976966 0,-4.987143480976966z"></path></g></g></g><g clip-path="url(#cp_kgZgv7sr)" transform="matrix(1,0,0,1,224,0)" opacity="1"><g transform="matrix(1,0,0,1,40.449,9.449)" opacity="1" style="user-select: none;"><g opacity="1" transform="matrix(1,0,0,1,-35.449,-4.449)"><path fill="rgb(216,40,40)" fill-opacity="1" d=" M0,-2.9899645124921195 C1.6501614144444006,-2.9899645124921195 2.9899645124921195,-1.6501614144444006 2.9899645124921195,0 C2.9899645124921195,1.6501614144444006 1.6501614144444006,2.9899645124921195 0,2.9899645124921195 C-1.6501614144444006,2.9899645124921195 -2.9899645124921195,1.6501614144444006 -2.9899645124921195,0 C-2.9899645124921195,-1.6501614144444006 -1.6501614144444006,-2.9899645124921195 0,-2.9899645124921195z"></path><path stroke-linecap="butt" stroke-linejoin="miter" fill-opacity="0" stroke-miterlimit="4" stroke="rgb(255,255,255)" stroke-opacity="1" stroke-width="0" d=" M0,-2.9899645124921195 C1.6501614144444006,-2.9899645124921195 2.9899645124921195,-1.6501614144444006 2.9899645124921195,0 C2.9899645124921195,1.6501614144444006 1.6501614144444006,2.9899645124921195 0,2.9899645124921195 C-1.6501614144444006,2.9899645124921195 -2.9899645124921195,1.6501614144444006 -2.9899645124921195,0 C-2.9899645124921195,-1.6501614144444006 -1.6501614144444006,-2.9899645124921195 0,-2.9899645124921195z"></path></g></g></g><g clip-path="url(#cp_AJPN7wvk)" transform="matrix(1,0,0,1,224,0)" opacity="1"><g transform="matrix(1,0,0,1,40.449,9.449)" opacity="1" style="user-select: none;"><g opacity="1" transform="matrix(1,0,0,1,-35.449,-4.449)"><path fill="rgb(216,40,40)" fill-opacity="1" d=" M0,-0.06208187888807424 C0.03426298895832817,-0.06208187888807424 0.06208187888807424,-0.03426298895832817 0.06208187888807424,0 C0.06208187888807424,0.03426298895832817 0.03426298895832817,0.06208187888807424 0,0.06208187888807424 C-0.03426298895832817,0.06208187888807424 -0.06208187888807424,0.03426298895832817 -0.06208187888807424,0 C-0.06208187888807424,-0.03426298895832817 -0.03426298895832817,-0.06208187888807424 0,-0.06208187888807424z"></path><path stroke-linecap="butt" stroke-linejoin="miter" fill-opacity="0" stroke-miterlimit="4" stroke="rgb(255,255,255)" stroke-opacity="1" stroke-width="0" d=" M0,-0.06208187888807424 C0.03426298895832817,-0.06208187888807424 0.06208187888807424,-0.03426298895832817 0.06208187888807424,0 C0.06208187888807424,0.03426298895832817 0.03426298895832817,0.06208187888807424 0,0.06208187888807424 C-0.03426298895832817,0.06208187888807424 -0.06208187888807424,0.03426298895832817 -0.06208187888807424,0 C-0.06208187888807424,-0.03426298895832817 -0.03426298895832817,-0.06208187888807424 0,-0.06208187888807424z"></path></g></g></g><g clip-path="url(#cp_3nJmLG4Q)"><g style="user-select: none; display: none;"><g><path style="display: none;"></path><path stroke-linecap="butt" stroke-linejoin="miter" fill-opacity="0" stroke-miterlimit="4" style="display: none;"></path></g></g></g><g clip-path="url(#cp_grUELbDC)"><g style="user-select: none; display: none;"><g><path style="display: none;"></path><path stroke-linecap="butt" stroke-linejoin="miter" fill-opacity="0" stroke-miterlimit="4" style="display: none;"></path></g></g></g><g clip-path="url(#cp_VBRpgQEr)"><g style="user-select: none; display: none;"><g><path style="display: none;"></path><path stroke-linecap="butt" stroke-linejoin="miter" fill-opacity="0" stroke-miterlimit="4" style="display: none;"></path></g></g></g><g clip-path="url(#cp_uYEzgHh6)"><g style="user-select: none; display: none;"><g><path style="display: none;"></path><path stroke-linecap="butt" stroke-linejoin="miter" fill-opacity="0" stroke-miterlimit="4" style="display: none;"></path></g></g></g><g clip-path="url(#cp_gFxo668I)"><g style="user-select: none; display: none;"><g><path style="display: none;"></path><path stroke-linecap="butt" stroke-linejoin="miter" fill-opacity="0" stroke-miterlimit="4" style="display: none;"></path></g></g></g><g clip-path="url(#cp_zmstXDpH)"><g style="user-select: none; display: none;"><g><path style="display: none;"></path><path stroke-linecap="butt" stroke-linejoin="miter" fill-opacity="0" stroke-miterlimit="4" style="display: none;"></path></g></g></g><g clip-path="url(#cp_8uLeTbhd)"><g style="user-select: none; display: none;"><g><path style="display: none;"></path><path stroke-linecap="butt" stroke-linejoin="miter" fill-opacity="0" stroke-miterlimit="4" style="display: none;"></path></g></g></g><g clip-path="url(#cp_vZ1vO4f9)"><g style="user-select: none; display: none;"><g><path style="display: none;"></path><path stroke-linecap="butt" stroke-linejoin="miter" fill-opacity="0" stroke-miterlimit="4" style="display: none;"></path></g></g></g><g clip-path="url(#cp_NjGvWQ47)"><g style="user-select: none; display: none;"><g><path style="display: none;"></path><path stroke-linecap="butt" stroke-linejoin="miter" fill-opacity="0" stroke-miterlimit="4" style="display: none;"></path></g></g></g><g clip-path="url(#cp_prlkh4kJ)"><g style="user-select: none; display: none;"><g><path style="display: none;"></path><path stroke-linecap="butt" stroke-linejoin="miter" fill-opacity="0" stroke-miterlimit="4" style="display: none;"></path></g></g></g><g clip-path="url(#cp_gli6US2W)"><g style="user-select: none; display: none;"><g><path style="display: none;"></path><path stroke-linecap="butt" stroke-linejoin="miter" fill-opacity="0" stroke-miterlimit="4" style="display: none;"></path></g></g></g></g><g clip-path="url(#cp_dmjf013k)" filter="url(#0Q48ERxVs0)" transform="matrix(1,0,0,1,105,105.333)" opacity="1"><g clip-path="url(#cp_2HhJL5nW)" transform="matrix(1,0,0,1,324,0)" opacity="1"><g transform="matrix(1,0,0,1,40.449,9.449)" opacity="1" style="user-select: none;"><g opacity="1" transform="matrix(1,0,0,1,-35.449,-4.449)"><path fill="rgb(216,40,40)" fill-opacity="1" d=" M0,0 C0,0 0,0 0,0 C0,0 0,0 0,0 C0,0 0,0 0,0 C0,0 0,0 0,0z"></path><path stroke-linecap="butt" stroke-linejoin="miter" fill-opacity="0" stroke-miterlimit="4" stroke="rgb(255,255,255)" stroke-opacity="1" stroke-width="0" d=" M0,0 C0,0 0,0 0,0 C0,0 0,0 0,0 C0,0 0,0 0,0 C0,0 0,0 0,0z"></path></g></g></g><g clip-path="url(#cp_ULoV3z91)" transform="matrix(1,0,0,1,304,0)" opacity="1"><g transform="matrix(1,0,0,1,40.449,9.449)" opacity="1" style="user-select: none;"><g opacity="1" transform="matrix(1,0,0,1,-35.449,-4.449)"><path fill="rgb(216,40,40)" fill-opacity="1" d=" M0,0 C0,0 0,0 0,0 C0,0 0,0 0,0 C0,0 0,0 0,0 C0,0 0,0 0,0z"></path><path stroke-linecap="butt" stroke-linejoin="miter" fill-opacity="0" stroke-miterlimit="4" stroke="rgb(255,255,255)" stroke-opacity="1" stroke-width="0" d=" M0,0 C0,0 0,0 0,0 C0,0 0,0 0,0 C0,0 0,0 0,0 C0,0 0,0 0,0z"></path></g></g></g><g clip-path="url(#cp_OFzMcNo2)" transform="matrix(1,0,0,1,284,0)" opacity="1"><g transform="matrix(1,0,0,1,40.449,9.449)" opacity="1" style="user-select: none;"><g opacity="1" transform="matrix(1,0,0,1,-35.449,-4.449)"><path fill="rgb(216,40,40)" fill-opacity="1" d=" M0,0 C0,0 0,0 0,0 C0,0 0,0 0,0 C0,0 0,0 0,0 C0,0 0,0 0,0z"></path><path stroke-linecap="butt" stroke-linejoin="miter" fill-opacity="0" stroke-miterlimit="4" stroke="rgb(255,255,255)" stroke-opacity="1" stroke-width="0" d=" M0,0 C0,0 0,0 0,0 C0,0 0,0 0,0 C0,0 0,0 0,0 C0,0 0,0 0,0z"></path></g></g></g><g clip-path="url(#cp_nADkA65c)" transform="matrix(1,0,0,1,264,0)" opacity="1"><g transform="matrix(1,0,0,1,40.449,9.449)" opacity="1" style="user-select: none;"><g opacity="1" transform="matrix(1,0,0,1,-35.449,-4.449)"><path fill="rgb(216,40,40)" fill-opacity="1" d=" M0,0 C0,0 0,0 0,0 C0,0 0,0 0,0 C0,0 0,0 0,0 C0,0 0,0 0,0z"></path><path stroke-linecap="butt" stroke-linejoin="miter" fill-opacity="0" stroke-miterlimit="4" stroke="rgb(255,255,255)" stroke-opacity="1" stroke-width="0" d=" M0,0 C0,0 0,0 0,0 C0,0 0,0 0,0 C0,0 0,0 0,0 C0,0 0,0 0,0z"></path></g></g></g><g clip-path="url(#cp_t2rTUVk4)" transform="matrix(1,0,0,1,244,0)" opacity="1"><g transform="matrix(1,0,0,1,40.449,9.449)" opacity="1" style="user-select: none;"><g opacity="1" transform="matrix(1,0,0,1,-35.449,-4.449)"><path fill="rgb(216,40,40)" fill-opacity="1" d=" M0,-1.383941269192328 C0.7637971864672458,-1.383941269192328 1.383941269192328,-0.7637971864672458 1.383941269192328,0 C1.383941269192328,0.7637971864672458 0.7637971864672458,1.383941269192328 0,1.383941269192328 C-0.7637971864672458,1.383941269192328 -1.383941269192328,0.7637971864672458 -1.383941269192328,0 C-1.383941269192328,-0.7637971864672458 -0.7637971864672458,-1.383941269192328 0,-1.383941269192328z"></path><path stroke-linecap="butt" stroke-linejoin="miter" fill-opacity="0" stroke-miterlimit="4" stroke="rgb(255,255,255)" stroke-opacity="1" stroke-width="0" d=" M0,-1.383941269192328 C0.7637971864672458,-1.383941269192328 1.383941269192328,-0.7637971864672458 1.383941269192328,0 C1.383941269192328,0.7637971864672458 0.7637971864672458,1.383941269192328 0,1.383941269192328 C-0.7637971864672458,1.383941269192328 -1.383941269192328,0.7637971864672458 -1.383941269192328,0 C-1.383941269192328,-0.7637971864672458 -0.7637971864672458,-1.383941269192328 0,-1.383941269192328z"></path></g></g></g><g clip-path="url(#cp_MlV2goQ9)" transform="matrix(1,0,0,1,224,0)" opacity="1"><g transform="matrix(1,0,0,1,40.449,9.449)" opacity="1" style="user-select: none;"><g opacity="1" transform="matrix(1,0,0,1,-35.449,-4.449)"><path fill="rgb(216,40,40)" fill-opacity="1" d=" M0,-2.990690189950391 C1.6505619158336204,-2.990690189950391 2.990690189950391,-1.6505619158336204 2.990690189950391,0 C2.990690189950391,1.6505619158336204 1.6505619158336204,2.990690189950391 0,2.990690189950391 C-1.6505619158336204,2.990690189950391 -2.990690189950391,1.6505619158336204 -2.990690189950391,0 C-2.990690189950391,-1.6505619158336204 -1.6505619158336204,-2.990690189950391 0,-2.990690189950391z"></path><path stroke-linecap="butt" stroke-linejoin="miter" fill-opacity="0" stroke-miterlimit="4" stroke="rgb(255,255,255)" stroke-opacity="1" stroke-width="0" d=" M0,-2.990690189950391 C1.6505619158336204,-2.990690189950391 2.990690189950391,-1.6505619158336204 2.990690189950391,0 C2.990690189950391,1.6505619158336204 1.6505619158336204,2.990690189950391 0,2.990690189950391 C-1.6505619158336204,2.990690189950391 -2.990690189950391,1.6505619158336204 -2.990690189950391,0 C-2.990690189950391,-1.6505619158336204 -1.6505619158336204,-2.990690189950391 0,-2.990690189950391z"></path></g></g></g><g clip-path="url(#cp_84BgwrES)" transform="matrix(1,0,0,1,224,0)" opacity="1"><g transform="matrix(1,0,0,1,40.449,9.449)" opacity="1" style="user-select: none;"><g opacity="1" transform="matrix(1,0,0,1,-35.449,-4.449)"><path fill="rgb(216,40,40)" fill-opacity="1" d=" M0,-4.295433527333397 C2.3706497637353015,-4.295433527333397 4.295433527333397,-2.3706497637353015 4.295433527333397,0 C4.295433527333397,2.3706497637353015 2.3706497637353015,4.295433527333397 0,4.295433527333397 C-2.3706497637353015,4.295433527333397 -4.295433527333397,2.3706497637353015 -4.295433527333397,0 C-4.295433527333397,-2.3706497637353015 -2.3706497637353015,-4.295433527333397 0,-4.295433527333397z"></path><path stroke-linecap="butt" stroke-linejoin="miter" fill-opacity="0" stroke-miterlimit="4" stroke="rgb(255,255,255)" stroke-opacity="1" stroke-width="0" d=" M0,-4.295433527333397 C2.3706497637353015,-4.295433527333397 4.295433527333397,-2.3706497637353015 4.295433527333397,0 C4.295433527333397,2.3706497637353015 2.3706497637353015,4.295433527333397 0,4.295433527333397 C-2.3706497637353015,4.295433527333397 -4.295433527333397,2.3706497637353015 -4.295433527333397,0 C-4.295433527333397,-2.3706497637353015 -2.3706497637353015,-4.295433527333397 0,-4.295433527333397z"></path></g></g></g><g clip-path="url(#cp_hRzGY5H9)" transform="matrix(1,0,0,1,204,0)" opacity="1"><g transform="matrix(1,0,0,1,40.449,9.449)" opacity="1" style="user-select: none;"><g opacity="1" transform="matrix(1,0,0,1,-35.449,-4.449)"><path fill="rgb(216,40,40)" fill-opacity="1" d=" M0,-4.987143480976966 C2.7524044871511877,-4.987143480976966 4.987143480976966,-2.7524044871511877 4.987143480976966,0 C4.987143480976966,2.7524044871511877 2.7524044871511877,4.987143480976966 0,4.987143480976966 C-2.7524044871511877,4.987143480976966 -4.987143480976966,2.7524044871511877 -4.987143480976966,0 C-4.987143480976966,-2.7524044871511877 -2.7524044871511877,-4.987143480976966 0,-4.987143480976966z"></path><path stroke-linecap="butt" stroke-linejoin="miter" fill-opacity="0" stroke-miterlimit="4" stroke="rgb(255,255,255)" stroke-opacity="1" stroke-width="0" d=" M0,-4.987143480976966 C2.7524044871511877,-4.987143480976966 4.987143480976966,-2.7524044871511877 4.987143480976966,0 C4.987143480976966,2.7524044871511877 2.7524044871511877,4.987143480976966 0,4.987143480976966 C-2.7524044871511877,4.987143480976966 -4.987143480976966,2.7524044871511877 -4.987143480976966,0 C-4.987143480976966,-2.7524044871511877 -2.7524044871511877,-4.987143480976966 0,-4.987143480976966z"></path></g></g></g><g clip-path="url(#cp_l8lj1EL3)" transform="matrix(1,0,0,1,184,0)" opacity="1"><g transform="matrix(1,0,0,1,40.449,9.449)" opacity="1" style="user-select: none;"><g opacity="1" transform="matrix(1,0,0,1,-35.449,-4.449)"><path fill="rgb(216,40,40)" fill-opacity="1" d=" M0,-2.9899645124921195 C1.6501614144444006,-2.9899645124921195 2.9899645124921195,-1.6501614144444006 2.9899645124921195,0 C2.9899645124921195,1.6501614144444006 1.6501614144444006,2.9899645124921195 0,2.9899645124921195 C-1.6501614144444006,2.9899645124921195 -2.9899645124921195,1.6501614144444006 -2.9899645124921195,0 C-2.9899645124921195,-1.6501614144444006 -1.6501614144444006,-2.9899645124921195 0,-2.9899645124921195z"></path><path stroke-linecap="butt" stroke-linejoin="miter" fill-opacity="0" stroke-miterlimit="4" stroke="rgb(255,255,255)" stroke-opacity="1" stroke-width="0" d=" M0,-2.9899645124921195 C1.6501614144444006,-2.9899645124921195 2.9899645124921195,-1.6501614144444006 2.9899645124921195,0 C2.9899645124921195,1.6501614144444006 1.6501614144444006,2.9899645124921195 0,2.9899645124921195 C-1.6501614144444006,2.9899645124921195 -2.9899645124921195,1.6501614144444006 -2.9899645124921195,0 C-2.9899645124921195,-1.6501614144444006 -1.6501614144444006,-2.9899645124921195 0,-2.9899645124921195z"></path></g></g></g><g clip-path="url(#cp_HXgI3nZm)" transform="matrix(1,0,0,1,164,0)" opacity="1"><g transform="matrix(1,0,0,1,40.449,9.449)" opacity="1" style="user-select: none;"><g opacity="1" transform="matrix(1,0,0,1,-35.449,-4.449)"><path fill="rgb(216,40,40)" fill-opacity="1" d=" M0,-0.06208187888807424 C0.03426298895832817,-0.06208187888807424 0.06208187888807424,-0.03426298895832817 0.06208187888807424,0 C0.06208187888807424,0.03426298895832817 0.03426298895832817,0.06208187888807424 0,0.06208187888807424 C-0.03426298895832817,0.06208187888807424 -0.06208187888807424,0.03426298895832817 -0.06208187888807424,0 C-0.06208187888807424,-0.03426298895832817 -0.03426298895832817,-0.06208187888807424 0,-0.06208187888807424z"></path><path stroke-linecap="butt" stroke-linejoin="miter" fill-opacity="0" stroke-miterlimit="4" stroke="rgb(255,255,255)" stroke-opacity="1" stroke-width="0" d=" M0,-0.06208187888807424 C0.03426298895832817,-0.06208187888807424 0.06208187888807424,-0.03426298895832817 0.06208187888807424,0 C0.06208187888807424,0.03426298895832817 0.03426298895832817,0.06208187888807424 0,0.06208187888807424 C-0.03426298895832817,0.06208187888807424 -0.06208187888807424,0.03426298895832817 -0.06208187888807424,0 C-0.06208187888807424,-0.03426298895832817 -0.03426298895832817,-0.06208187888807424 0,-0.06208187888807424z"></path></g></g></g><g clip-path="url(#cp_AJU7jpiX)"><g style="user-select: none; display: none;"><g><path style="display: none;"></path><path stroke-linecap="butt" stroke-linejoin="miter" fill-opacity="0" stroke-miterlimit="4" style="display: none;"></path></g></g></g><g clip-path="url(#cp_7dcnGRC4)"><g style="user-select: none; display: none;"><g><path style="display: none;"></path><path stroke-linecap="butt" stroke-linejoin="miter" fill-opacity="0" stroke-miterlimit="4" style="display: none;"></path></g></g></g><g clip-path="url(#cp_8YNYqfLH)"><g style="user-select: none; display: none;"><g><path style="display: none;"></path><path stroke-linecap="butt" stroke-linejoin="miter" fill-opacity="0" stroke-miterlimit="4" style="display: none;"></path></g></g></g><g clip-path="url(#cp_nnwimeLW)"><g style="user-select: none; display: none;"><g><path style="display: none;"></path><path stroke-linecap="butt" stroke-linejoin="miter" fill-opacity="0" stroke-miterlimit="4" style="display: none;"></path></g></g></g><g clip-path="url(#cp_edG4Xh96)"><g style="user-select: none; display: none;"><g><path style="display: none;"></path><path stroke-linecap="butt" stroke-linejoin="miter" fill-opacity="0" stroke-miterlimit="4" style="display: none;"></path></g></g></g><g clip-path="url(#cp_1fa0GrQF)"><g style="user-select: none; display: none;"><g><path style="display: none;"></path><path stroke-linecap="butt" stroke-linejoin="miter" fill-opacity="0" stroke-miterlimit="4" style="display: none;"></path></g></g></g><g clip-path="url(#cp_HWw2TGds)"><g style="user-select: none; display: none;"><g><path style="display: none;"></path><path stroke-linecap="butt" stroke-linejoin="miter" fill-opacity="0" stroke-miterlimit="4" style="display: none;"></path></g></g></g><g clip-path="url(#cp_sBtvxmwb)"><g style="user-select: none; display: none;"><g><path style="display: none;"></path><path stroke-linecap="butt" stroke-linejoin="miter" fill-opacity="0" stroke-miterlimit="4" style="display: none;"></path></g></g></g></g><g clip-path="url(#cp_1EzVqVd9)" transform="matrix(1,0,0,1,0,-2.6670000000000016)" opacity="1"><g transform="matrix(1,0,0,1,169.5,194)" opacity="1" style="user-select: none;"><g opacity="1" transform="matrix(1,0,0,1,0,0.5)"><path stroke-linecap="butt" stroke-linejoin="miter" fill-opacity="0" stroke-miterlimit="4" stroke="rgb(249,186,5)" stroke-opacity="1" stroke-width="8" d=""></path></g></g><g transform="matrix(1,0,0,1,169.5,166.5)" opacity="1" style="user-select: none;"><g opacity="1" transform="matrix(1,0,0,1,0,0.5)"><path stroke-linecap="butt" stroke-linejoin="miter" fill-opacity="0" stroke-miterlimit="4" stroke="rgb(66,132,244)" stroke-opacity="1" stroke-width="8" d=""></path></g></g><g transform="matrix(1,0,0,1,169.5,140)" opacity="1" style="user-select: none;"><g opacity="1" transform="matrix(1,0,0,1,0,0.5)"><path stroke-linecap="butt" stroke-linejoin="miter" fill-opacity="0" stroke-miterlimit="4" stroke="rgb(234,66,53)" stroke-opacity="1" stroke-width="8" d=""></path></g></g></g></g><g transform="matrix(0,0,0,0,238.8273,187.5)" opacity="1" style="user-select: none;"><g opacity="1" transform="matrix(1,0,0,1,163.987,140)"><path fill="rgb(56,181,73)" fill-opacity="1" d=" M84,0 C84,46.392 46.392,84 0,84 C-46.392,84 -84,46.392 -84,0 C-84,-46.392 -46.392,-84 0,-84 C46.392,-84 84,-46.392 84,0z"></path></g></g><g></g><g mask="url(#ly_1PZEujfOtC)"><g clip-path="url(#cp_xlgxPjjG)" filter="url(#cbYzC2un93)"><g style="user-select: none; display: none;"><g><path style="display: none;"></path></g></g></g></g></g></svg>