<?xml version="1.0" encoding="UTF-8" standalone="no"?>
<svg width="160px" height="192px" viewBox="0 0 160 192" version="1.1" xmlns="http://www.w3.org/2000/svg" xmlns:xlink="http://www.w3.org/1999/xlink" xmlns:sketch="http://www.bohemiancoding.com/sketch/ns">
    <!-- Generator: Sketch 3.2.2 (9983) - http://www.bohemiancoding.com/sketch -->
    <title>noun_39407_cc</title>
    <desc>Created with Sketch.</desc>
    <defs></defs>
    <g id="Overview" stroke="none" stroke-width="1" fill="none" fill-rule="evenodd" sketch:type="MSPage">
        <g id="Security-Desktop-HD" sketch:type="MSArtboardGroup" transform="translate(-340.000000, -246.000000)" fill="#000000">
            <g id="noun_39407_cc" sketch:type="MSLayerGroup" transform="translate(340.000000, 246.000000)">
                <path d="M106.026667,36.6933333 L106.026667,42.6666667 C133.973333,53.3333333 154.026667,80.4266667 154.026667,112.213333 C154.026667,152.96 120.746667,186.24 80,186.24 C39.04,186.24 5.97333333,152.96 5.97333333,112.213333 C5.97333333,80.8533333 25.6,53.9733333 53.3333333,43.0933333 L53.3333333,36.9066667 C22.4,48 0.213333333,77.44 0.213333333,112 C0.213333333,156.16 36.0533333,192 80,192 C123.946667,192 159.786667,156.16 159.786667,112.213333 C159.786667,77.2266667 137.386667,47.5733333 106.026667,36.6933333 L106.026667,36.6933333 Z" id="Shape" sketch:type="MSShapeGroup"></path>
                <path d="M103.253333,92.16 C103.253333,79.36 93.0133333,69.12 80.2133333,69.12 C67.6266667,69.12 57.3866667,79.36 57.1733333,91.7333333 C57.1733333,92.3733333 56.96,97.7066667 56.96,97.7066667 C56.96,97.7066667 56.7466667,98.9866667 56.32,99.4133333 L55.2533333,100.693333 C54.8266667,101.12 54.6133333,101.76 54.6133333,102.613333 C54.6133333,102.613333 54.6133333,103.893333 54.8266667,105.386667 L54.8266667,105.386667 C54.8266667,105.386667 55.68,111.36 58.0266667,113.28 C58.0266667,113.28 61.8666667,115.626667 62.5066667,116.48 C63.1466667,117.333333 63.7866667,118.826667 63.7866667,121.386667 C63.7866667,121.386667 64.64,130.773333 60.3733333,134.613333 C59.3066667,135.466667 58.24,136.106667 57.6,136.32 L34.1333333,147.413333 L29.6533333,149.546667 C28.5866667,150.186667 27.7333333,151.253333 27.7333333,152.746667 C27.7333333,152.746667 27.7333333,152.746667 27.7333333,152.96 L27.7333333,152.96 C27.7333333,152.96 27.7333333,152.96 27.7333333,153.173333 L27.7333333,153.6 C27.7333333,153.813333 27.7333333,154.026667 27.9466667,154.24 C28.16,154.453333 28.3733333,155.093333 28.8,155.733333 L28.8,155.733333 C29.8666667,157.013333 32.4266667,160 37.5466667,164.053333 L37.76,164.053333 C49.0666667,173.013333 63.36,178.56 78.9333333,178.56 L81.0666667,178.56 C96.64,178.56 110.933333,173.226667 122.24,164.053333 L122.453333,164.053333 C127.573333,160 130.133333,157.013333 131.2,155.733333 L131.2,155.733333 C131.626667,155.093333 131.84,154.666667 132.053333,154.24 C132.053333,154.026667 132.266667,153.813333 132.266667,153.6 L132.266667,153.173333 C132.266667,153.173333 132.266667,153.173333 132.266667,152.96 L132.266667,152.96 C132.266667,152.96 132.266667,152.96 132.266667,152.746667 C132.266667,151.466667 131.413333,150.186667 130.346667,149.546667 L125.866667,147.413333 L102.4,136.32 C101.76,136.106667 100.693333,135.466667 99.6266667,134.613333 C95.36,130.773333 96.2133333,121.386667 96.2133333,121.386667 C96.2133333,119.04 96.8533333,117.546667 97.4933333,116.48 C98.1333333,115.626667 101.973333,113.28 101.973333,113.28 C104.32,111.36 105.173333,105.386667 105.173333,105.386667 L105.173333,105.386667 C105.386667,103.68 105.386667,102.613333 105.386667,102.613333 C105.386667,101.76 105.173333,100.906667 104.746667,100.693333 L103.68,99.4133333 C103.253333,98.9866667 103.04,97.7066667 103.04,97.7066667" id="Shape" sketch:type="MSShapeGroup"></path>
                <path d="M94.9333333,53.9733333 C97.92,53.9733333 100.48,51.6266667 100.48,48.4266667 L100.48,27.0933333 C100.48,24.1066667 98.1333333,21.76 95.36,21.76 L95.36,15.5733333 C95.36,7.04 88.32,-3.55271368e-15 79.7866667,-3.55271368e-15 C71.2533333,-3.55271368e-15 64.2133333,7.04 64.2133333,15.5733333 L64.2133333,21.76 C61.44,21.9733333 59.0933333,24.32 59.0933333,27.0933333 L59.0933333,48.4266667 C59.0933333,51.4133333 61.44,53.9733333 64.64,53.9733333 L94.9333333,53.9733333 L94.9333333,53.9733333 Z M84.0533333,41.1733333 C84.0533333,43.52 82.1333333,45.6533333 79.7866667,45.6533333 C77.44,45.6533333 75.52,43.7333333 75.52,41.1733333 L75.52,34.3466667 C75.52,32 77.44,29.8666667 79.7866667,29.8666667 C82.1333333,29.8666667 84.0533333,31.7866667 84.0533333,34.3466667 L84.0533333,41.1733333 L84.0533333,41.1733333 Z M85.76,15.5733333 L85.76,21.5466667 L79.7866667,21.5466667 L73.8133333,21.5466667 L73.8133333,15.5733333 C73.8133333,14.2933333 73.8133333,13.0133333 74.24,11.9466667 C74.24,11.7333333 74.24,11.7333333 74.4533333,11.52 C74.4533333,11.3066667 74.4533333,11.0933333 74.6666667,11.0933333 C74.88,10.6666667 74.88,10.4533333 75.0933333,10.24 C75.0933333,10.24 75.0933333,10.24 75.0933333,10.0266667 C76.16,8.32 77.8666667,7.04 80,7.04 C82.1333333,7.25333333 83.84,8.32 84.9066667,10.0266667 C84.9066667,10.0266667 84.9066667,10.0266667 84.9066667,10.24 C85.12,10.4533333 85.12,10.88 85.3333333,11.0933333 C85.3333333,11.3066667 85.3333333,11.52 85.5466667,11.52 C85.5466667,11.7333333 85.5466667,11.7333333 85.76,11.9466667 C85.5466667,13.0133333 85.76,14.2933333 85.76,15.5733333 L85.76,15.5733333 L85.76,15.5733333 Z" id="Shape" sketch:type="MSShapeGroup"></path>
            </g>
        </g>
    </g>
</svg>