<?xml version="1.0" standalone="no"?>
<!DOCTYPE svg PUBLIC "-//W3C//DTD SVG 20010904//EN"
 "http://www.w3.org/TR/2001/REC-SVG-20010904/DTD/svg10.dtd">
<svg version="1.0" xmlns="http://www.w3.org/2000/svg"
 width="225.000000pt" height="225.000000pt" viewBox="0 0 225.000000 225.000000"
 preserveAspectRatio="xMidYMid meet">
<metadata>
Created by potrace 1.15, written by Peter Selinger 2001-2017
</metadata>
<g transform="translate(0.000000,225.000000) scale(0.100000,-0.100000)"
fill="#000000" stroke="none">
<path d="M465 2064 c-63 -32 -60 -12 -65 -407 l-5 -362 -82 -6 c-89 -7 -115
-19 -172 -78 -60 -62 -61 -71 -61 -391 0 -182 4 -299 10 -311 10 -18 23 -19
165 -19 l155 0 0 -112 c0 -125 15 -173 60 -195 19 -10 173 -13 665 -13 619 0
641 1 672 20 40 24 42 35 46 180 l2 115 155 5 155 5 3 295 c2 195 -1 308 -8
333 -27 94 -137 167 -251 167 l-67 0 -3 203 -4 203 -42 69 c-26 42 -85 113
-150 177 -147 147 -104 138 -686 138 -398 0 -466 -2 -492 -16z m905 -241 c0
-182 31 -213 213 -213 l107 0 0 -245 0 -245 -565 0 -565 0 0 405 0 405 405 0
405 0 0 -107z m630 -728 c20 -25 16 -73 -8 -98 -31 -31 -97 -30 -123 2 -36 44
-20 103 34 126 34 14 69 4 97 -30z m-310 -595 l0 -160 -565 0 -565 0 0 160 0
160 565 0 565 0 0 -160z"/>
</g>
</svg>
