<?xml version="1.0" standalone="no"?>
<!DOCTYPE svg PUBLIC "-//W3C//DTD SVG 20010904//EN"
 "http://www.w3.org/TR/2001/REC-SVG-20010904/DTD/svg10.dtd">
<svg version="1.0" xmlns="http://www.w3.org/2000/svg"
 width="512.000000pt" height="512.000000pt" viewBox="0 0 512.000000 512.000000"
 preserveAspectRatio="xMidYMid meet">
<metadata>
Created by potrace 1.15, written by Peter Selinger 2001-2017
</metadata>
<g transform="translate(0.000000,512.000000) scale(0.100000,-0.100000)"
fill="#000000" stroke="none">
<path d="M1587 4476 l-948 -421 4 -765 c3 -722 5 -772 25 -895 51 -318 132
-566 273 -845 324 -641 886 -1123 1526 -1311 l93 -27 93 27 c640 188 1196 664
1524 1308 142 278 223 527 275 848 20 123 22 173 25 895 l4 765 -953 423
c-524 232 -962 422 -973 421 -11 -1 -446 -191 -968 -423z m1395 -2128 l-852
-853 -425 425 -425 425 152 152 153 153 275 -275 275 -275 700 700 700 700
150 -150 150 -150 -853 -852z"/>
</g>
</svg>
